<?xml version="1.0" standalone="no"?>
<!DOCTYPE svg PUBLIC "-//W3C//DTD SVG 1.1//EN" "http://www.w3.org/Graphics/SVG/1.1/DTD/svg11.dtd" >
<svg xmlns="http://www.w3.org/2000/svg" xmlns:xlink="http://www.w3.org/1999/xlink" version="1.1">
<metadata>
Created by FontForge 20161013 at Sat Dec  3 01:16:19 2011
 By ,,,
Copyright (c) 2011 by Julia Martinez Diana // www.antipixel.com.ar. All rights reserved.
</metadata>
<defs>
<font id="PresaUltraLightANTIPIXEL.COM.AR" horiz-adv-x="598" >
  <font-face 
    font-family="Presa UltraLight ANTIPIXEL.COM.AR"
    font-weight="200"
    font-stretch="normal"
    units-per-em="1000"
    panose-1="2 1 4 4 5 1 0 2 0 4"
    ascent="800"
    descent="-200"
    x-height="698"
    cap-height="699"
    bbox="-35 -147 819 889"
    underline-thickness="15"
    underline-position="-60"
    unicode-range="U+0020-00FF"
  />
<missing-glyph horiz-adv-x="500" 
 />
    <glyph glyph-name=".notdef" horiz-adv-x="500" 
 />
    <glyph glyph-name=".null" horiz-adv-x="0" 
 />
    <glyph glyph-name="nonmarkingreturn" horiz-adv-x="333" 
 />
    <glyph glyph-name="space" unicode=" " horiz-adv-x="500" 
 />
    <glyph glyph-name="quotedbl" unicode="&#x22;" horiz-adv-x="144" 
d="M54 713v-90h-25v90h25zM112 713v-90h-25v90h25z" />
    <glyph glyph-name="quotesingle" unicode="'" horiz-adv-x="118" 
d="M54 713v-90h-25v90h25z" />
    <glyph glyph-name="parenleft" unicode="(" horiz-adv-x="340" 
d="M88 29h185v-29h-214v701h214v-25h-185v-647z" />
    <glyph glyph-name="parenright" unicode=")" horiz-adv-x="319" 
d="M52 701h214v-701h-214v29h185v647h-185v25z" />
    <glyph glyph-name="comma" unicode="," horiz-adv-x="167" 
d="M33 -36h-17l25 36h-18v51h35v-51z" />
    <glyph glyph-name="hyphen" unicode="-" horiz-adv-x="410" 
d="M99 301h235v-25h-235v25z" />
    <glyph glyph-name="period" unicode="." horiz-adv-x="183" 
d="M22 0v51h35v-51h-35z" />
    <glyph glyph-name="slash" unicode="/" horiz-adv-x="324" 
d="M293 700l-245 -700h-28l243 700h30z" />
    <glyph glyph-name="zero" unicode="0" horiz-adv-x="623" 
d="M561 346q0 -75 -20.5 -141.5t-56 -116t-83.5 -78t-102 -28.5t-102 28.5t-84 78t-56.5 116t-20.5 141.5t20.5 141.5t56.5 115.5t84 77.5t102 28.5t102 -28.5t83.5 -77.5t56 -115.5t20.5 -141.5zM531 346q0 71 -17.5 132.5t-48.5 106.5t-73.5 70.5t-92.5 25.5t-93 -25.5
t-74 -70.5t-48.5 -106.5t-17.5 -132.5t17.5 -132.5t48.5 -106.5t74 -70.5t93 -25.5t92.5 25.5t73.5 70.5t48.5 106.5t17.5 132.5z" />
    <glyph glyph-name="one" unicode="1" horiz-adv-x="363" 
d="M68 476l-24 20l190 228h23v-736h-31v675z" />
    <glyph glyph-name="two" unicode="2" horiz-adv-x="614" 
d="M100 620q57 51 116 74t115 23q40 0 75 -12t60.5 -34t40.5 -53t15 -69q0 -57 -37 -125t-126 -145q-31 -29 -67 -59.5t-70.5 -62.5t-66 -64.5t-53.5 -64.5h482v-28h-516v28q60 81 129.5 145t144.5 125q84 72 119 135.5t35 115.5q0 32 -12.5 58.5t-35 45t-52.5 28.5t-65 10
q-50 0 -104.5 -21.5t-108.5 -69.5z" />
    <glyph glyph-name="three" unicode="3" horiz-adv-x="547" 
d="M92 643q43 40 87.5 57t86.5 17q31 0 60 -8.5t53 -23.5t43.5 -35t31.5 -43v1q17 -29 17 -68q0 -30 -11 -61t-34 -55.5t-58.5 -40.5t-84.5 -16q-12 0 -23.5 1t-23.5 3l4 26q12 -2 23 -3t20 -1q42 0 72.5 13.5t50.5 34.5t29.5 47t9.5 52q0 15 -3 29t-10 25q-22 41 -66 69
t-100 28q-37 0 -77 -15.5t-79 -52.5zM384 412q76 -50 108 -102.5t32 -103.5q0 -47 -23.5 -89t-60.5 -73t-82 -49t-88 -16q-33 1 -75.5 10.5t-80.5 33.5t-63.5 65t-22.5 105h26q-2 -56 20.5 -92t56.5 -57t72 -29.5t67 -9.5q39 -2 79.5 13.5t73.5 43.5t54 65t21 79
q0 45 -29 92t-99 92z" />
    <glyph glyph-name="four" unicode="4" horiz-adv-x="549" 
d="M398 301h67v-29h-67v-284h-31v284h-340v21l149 187l199 254h23v-433zM218 480q-20 -26 -41 -51t-42 -51q-15 -20 -30 -38.5t-30 -38.5h292v372q-41 -52 -76 -98.5t-73 -94.5z" />
    <glyph glyph-name="five" unicode="5" horiz-adv-x="592" 
d="M475 694h-383v-257q29 4 62.5 7t71.5 3q42 0 84 -6t79.5 -22t68 -45.5t50.5 -75.5q27 -61 21.5 -119t-36.5 -103.5t-83.5 -73t-120.5 -27.5q-42 0 -83.5 10.5t-77 32.5t-62 55t-37.5 77l30 8q9 -39 32 -68t54.5 -47.5t68.5 -28t75 -9.5q59 0 105.5 22.5t74 60t33.5 87.5
t-15 106q-16 42 -45 69t-65 42.5t-75.5 22t-75.5 6.5q-38 0 -81 -4.5t-79 -9.5v313h409v-26z" />
    <glyph glyph-name="six" unicode="6" horiz-adv-x="592" 
d="M253 -26q-68 8 -112.5 41.5t-68.5 83.5t-29.5 111.5t2.5 125.5l7 51q16 91 38 153.5t53.5 100.5t74 55t99.5 17q56 0 131 -24l-8 -24q-34 11 -64.5 16.5t-58.5 5.5q-94 0 -149 -73t-86 -226l-4 -28t-3 -28q-2 -11 -2.5 -23t-1.5 -23q16 22 35 44q22 27 49 48t57.5 34
t63.5 18.5t66 1.5q55 -7 95.5 -30.5t66.5 -59t36.5 -79t5.5 -91.5q-8 -64 -39 -105t-73.5 -63.5t-90.5 -28.5t-90 -1zM130 310q-17 -20 -33 -42.5t-25 -45.5q4 -42 16 -79t34.5 -66.5t56 -48.5t79.5 -24q37 -5 79 0.5t79.5 25t65 55t34.5 91.5q5 42 -4 80.5t-31.5 69
t-58.5 51t-84 26.5q-57 6 -112.5 -17t-95.5 -76z" />
    <glyph glyph-name="seven" unicode="7" horiz-adv-x="470" 
d="M33 710h401v-27l-263 -695h-28l263 696h-373v26z" />
    <glyph glyph-name="eight" unicode="8" horiz-adv-x="564" 
d="M74 534q0 39 16.5 73t44.5 59.5t66 40t82 14.5t82 -14.5t66.5 -40t45 -59.5t16.5 -73q0 -38 -15.5 -70t-41.5 -57q54 -32 85.5 -82t31.5 -113q0 -49 -20.5 -91.5t-56.5 -74.5t-84 -50.5t-102 -18.5t-102 18.5t-84 50.5t-56.5 74.5t-20.5 91.5q0 59 28.5 108.5t79.5 80.5
q-27 26 -44 60.5t-17 72.5zM520 212q0 28 -10 54.5t-28 52.5q-29 41 -62 52.5t-66 11.5q-15 0 -30.5 -1.5t-32.5 -3.5t-32.5 -3.5t-32.5 -1.5q-15 0 -29.5 2t-29.5 7q-49 -34 -78 -79t-29 -91q0 -42 18 -79.5t49 -65t73 -43.5t90 -16t90 16t73 43.5t49 65t18 79.5zM107 534
q0 -29 15 -59t42 -57q14 -10 30 -12.5t32 -2.5q28 0 61 6q17 2 33 3.5t34 1.5q19 0 39 -3q30 29 48.5 60.5t18.5 62.5q0 32 -14 60.5t-38 49.5t-56 33.5t-69 12.5q-36 0 -68 -12.5t-56 -33.5t-38 -49.5t-14 -60.5z" />
    <glyph glyph-name="nine" unicode="9" horiz-adv-x="554" 
d="M31 168q12 -97 67 -144.5t148 -47.5q87 0 139 30.5t79 81.5t35 118t8 140q0 47 -2 87.5t-3 54.5q-1 51 -19.5 95t-51 76.5t-75 51t-91.5 18.5t-91.5 -19t-74.5 -51t-50.5 -76t-18.5 -93q0 -50 18.5 -93t50.5 -75.5t74.5 -51t91.5 -18.5q70 0 126.5 37t85.5 97v-40
q0 -67 -7 -128.5t-31 -108.5t-69.5 -75t-123.5 -28q-80 0 -127 41t-58 125zM60 490q0 43 16 81t44 66.5t65.5 45t79.5 16.5t79.5 -16.5t65.5 -45t44.5 -66.5t16.5 -81t-16.5 -81t-44.5 -66t-65.5 -44.5t-79.5 -16.5t-79.5 16.5t-65.5 44.5t-44 66t-16 81zM31 168
q12 -97 67 -144.5t148 -47.5q87 0 139 30.5t79 81.5t35 118t8 140q0 47 -2 87.5t-3 54.5q-1 51 -19.5 95t-51 76.5t-75 51t-91.5 18.5t-91.5 -19t-74.5 -51t-50.5 -76t-18.5 -93q0 -50 18.5 -93t50.5 -75.5t74.5 -51t91.5 -18.5q70 0 126.5 37t85.5 97v-40q0 -67 -7 -128.5
t-31 -108.5t-69.5 -75t-123.5 -28q-80 0 -127 41t-58 125zM60 490q0 43 16 81t44 66.5t65.5 45t79.5 16.5t79.5 -16.5t65.5 -45t44.5 -66.5t16.5 -81t-16.5 -81t-44.5 -66t-65.5 -44.5t-79.5 -16.5t-79.5 16.5t-65.5 44.5t-44 66t-16 81z" />
    <glyph glyph-name="colon" unicode=":" horiz-adv-x="107" 
d="M24 0v51h35v-51h-35zM24 254v51h35v-51h-35z" />
    <glyph glyph-name="semicolon" unicode=";" horiz-adv-x="107" 
d="M34 -36h-17l25 36h-18v51h35v-51zM24 254v51h35v-51h-35z" />
    <glyph glyph-name="equal" unicode="=" horiz-adv-x="410" 
d="M99 301h235v-24h-235v24zM99 229h235v-24h-235v24z" />
    <glyph glyph-name="A" unicode="A" 
d="M-4 0l258 730h36l270 -730h-29l-259 708q-40 -112 -78.5 -221t-77.5 -219h263v-25h-272q-21 -62 -41.5 -121t-42.5 -122h-27z" />
    <glyph glyph-name="B" unicode="B" horiz-adv-x="610" 
d="M526 534q0 -24 -7.5 -47.5t-20.5 -43t-30.5 -35t-36.5 -24.5q115 -56 137 -153q8 -32 5 -69q-3 -32 -16 -61.5t-34.5 -52t-52.5 -35.5t-71 -13h-334v709h290q41 0 73 -15t53.5 -40t33 -56t11.5 -64zM545 187q0 17 -6 44q-27 91 -145 138l-35 -1h-267v-339h298q42 0 71 13
t48 35t27.5 50.5t8.5 59.5zM92 682v-288h265q29 1 54.5 11.5t44.5 29t30 43.5t11 56q0 29 -8 55.5t-26 47t-46.5 33t-69.5 12.5h-255z" />
    <glyph glyph-name="C" unicode="C" horiz-adv-x="656" 
d="M375 699q-63 0 -119.5 -26.5t-99 -71.5t-67.5 -105.5t-26 -128.5q0 -68 25.5 -130t69.5 -110t103.5 -76.5t127.5 -28.5q53 0 105 19.5t100 64.5h35q-56 -60 -116.5 -85t-123.5 -25q-74 0 -138 31t-111.5 82.5t-75 118.5t-27.5 139q0 74 27 139t72.5 113t106 76t129.5 28
q83 0 142 -27.5t107 -93.5h-31q-42 51 -93.5 74t-121.5 23z" />
    <glyph glyph-name="D" unicode="D" horiz-adv-x="630" 
d="M62 709h236q65 0 120 -30.5t94.5 -79.5t62 -111t22.5 -125q0 -15 -1.5 -29.5t-3.5 -28.5q-12 -90 -42.5 -148.5t-83 -93.5t-129.5 -49t-182 -14h-93v709zM93 26q16 -1 31.5 -0.5t30.5 0.5q105 0 180.5 15t125.5 52.5t76.5 101t34.5 161.5v11q0 67 -24.5 125.5t-63 101.5
t-85.5 67.5t-93 24.5l-14 -1h-199v-659z" />
    <glyph glyph-name="E" unicode="E" horiz-adv-x="625" 
d="M95 322v-292h473v-30h-503v701h117v-25h-87v-324h428v-30h-428zM334 700h221v-24h-221v24z" />
    <glyph glyph-name="F" unicode="F" horiz-adv-x="619" 
d="M585 675h-462v-323h422v-30h-422v-322h-30v701h492v-26z" />
    <glyph glyph-name="G" unicode="G" horiz-adv-x="632" 
d="M573 0h-250q-133 17 -206.5 94.5t-83.5 205.5q-2 14 -3 26t-1.5 23.5t-0.5 24t1 27.5q6 83 33 142t66.5 96.5t86.5 55.5t94 18h36q18 0 43.5 -2.5t51.5 -10t49 -21t35 -36.5h-34q-9 10 -22.5 18t-28.5 13.5t-30.5 9t-28.5 5.5q-15 1 -29.5 1.5t-28.5 0.5h-14
q-46 -2 -89.5 -21.5t-78 -56t-57 -89t-25.5 -119.5q-1 -10 -1.5 -19.5t0.5 -17.5q-1 -47 8.5 -102t38.5 -104t82 -86t140 -49h217v305h-257v30h287v-362z" />
    <glyph glyph-name="H" unicode="H" horiz-adv-x="616" 
d="M108 320v-320h-28v700h28v-353h425v353h28v-555h-28v175h-425z" />
    <glyph glyph-name="I" unicode="I" horiz-adv-x="218" 
d="M128 699v-699h-26v699h26z" />
    <glyph glyph-name="J" unicode="J" horiz-adv-x="586" 
d="M65 263q0 -44 8 -76.5t22.5 -56.5t35 -41t44.5 -30q2 -1 2.5 -1.5t2.5 -1.5q7 -4 13.5 -6.5t13.5 -5.5q41 -16 87 -16q37 0 69.5 12.5t58 37t41 61.5t18.5 87v5t0.5 19.5t1 45.5t0.5 82v130.5v190.5h27v-473q-2 -57 -20 -99t-47.5 -70t-68 -41.5t-80.5 -13.5
q-30 0 -48.5 2t-38.5 11v-1q-88 29 -127.5 91.5t-41.5 157.5h27z" />
    <glyph glyph-name="K" unicode="K" horiz-adv-x="612" 
d="M122 700v-348l385 348h43l-284 -255l148 -206h-35l-135 185l-124 -112v-312h-32v700h34zM432 166h37l119 -166h-35z" />
    <glyph glyph-name="L" unicode="L" horiz-adv-x="597" 
d="M76 0v700h29v-670h479v-30h-508z" />
    <glyph glyph-name="M" unicode="M" horiz-adv-x="752" 
d="M667 100v564l-276 -670h-34l-274 670v-664h-29v705h44l276 -682l276 682h44v-605h-27z" />
    <glyph glyph-name="N" unicode="N" horiz-adv-x="650" 
d="M309 399l243 -359v665h27v-705h-34l-267 399h31zM105 658v-510h-29v553h31l119 -176h-30z" />
    <glyph glyph-name="O" unicode="O" horiz-adv-x="731" 
d="M58 356q0 -45 10 -86t28 -77h-28q-17 37 -26 77.5t-9 85.5q0 75 26 142t71.5 116.5t106.5 78.5t131 29q69 0 130 -29t106.5 -78.5t72 -116.5t26.5 -142q0 -76 -26.5 -142.5t-72 -116.5t-106.5 -79t-130 -29q-30 0 -58 6v26q28 -6 58 -6q64 0 120.5 27t98.5 73t66.5 108
t24.5 133q0 70 -24.5 132t-66.5 108t-98.5 73t-120.5 27q-65 0 -121.5 -27t-98.5 -73t-66 -108t-24 -132z" />
    <glyph glyph-name="P" unicode="P" horiz-adv-x="640" 
d="M64 0v571h28v-216h315q48 1 89 37.5t61 98.5q4 14 4.5 25.5t0.5 20.5q0 29 -10 57t-29 50t-47 35.5t-64 13.5h-179v23h186q49 0 84.5 -21t56.5 -53.5t27 -72.5t-3 -78q-6 -29 -22 -58t-39.5 -52.5t-53 -38.5t-61.5 -15h-316v-327h-28z" />
    <glyph glyph-name="Q" unicode="Q" horiz-adv-x="727" 
d="M531 49v-19q-74 -43 -159 -43q-70 0 -131 29t-106.5 79t-71.5 116.5t-26 142.5q0 75 26 142t71.5 116.5t106.5 78.5t131 29q69 0 130 -29t106.5 -78.5t72 -116.5t26.5 -142q0 -24 -3 -46h-25q3 22 3 46q0 70 -24.5 132t-66.5 108t-98.5 73t-120.5 27q-65 0 -121.5 -27
t-98.5 -73t-66 -108t-24 -132q0 -71 24 -133t66 -108t98.5 -73t121.5 -27q81 0 152 43v-7h7zM429 185l236 -313l-23 -19l-236 313z" />
    <glyph glyph-name="R" unicode="R" horiz-adv-x="636" 
d="M388 337l189 -337h-37l-182 337h-266v-337h-27v710h354q42 0 74 -15.5t53 -40t32 -56t11 -64.5q0 -32 -10 -64t-31 -59t-52.5 -47t-74.5 -27h-33zM92 366h325q35 7 61.5 23.5t44.5 39t27.5 49.5t9.5 55q0 23 -4 36q-5 24 -15.5 44.5t-27.5 36.5t-40.5 25t-53.5 9h-327
v-318z" />
    <glyph glyph-name="S" unicode="S" horiz-adv-x="587" 
d="M537 177q0 -36 -14.5 -69.5t-42.5 -59t-68.5 -40.5t-92.5 -14v26q46 -1 81.5 12t60 35t37.5 50.5t13 59.5q0 32 -15.5 63.5t-47 57t-79 42.5t-110.5 20q-30 3 -67 13t-69.5 27.5t-54 43t-20.5 59.5h26q-1 -29 20 -50t50 -35.5t61 -22t54 -9.5q72 -2 124.5 -21t86.5 -48.5
t50.5 -66t16.5 -73.5zM287 728q87 0 136 -44t72 -115h-26q-21 61 -64 97t-118 36q-11 0 -26 -1t-29 -3v26q14 2 28 3t27 1zM16 186h13q5 -64 44 -107.5t97 -57.5v-26q-70 14 -115.5 65t-51.5 126h13z" />
    <glyph glyph-name="T" unicode="T" horiz-adv-x="549" 
d="M554 671h-280v-671h-30v671h-243v28h553v-28z" />
    <glyph glyph-name="U" unicode="U" horiz-adv-x="675" 
d="M572 698h24v-406v-28v-16t-0.5 -8.5t-0.5 -4.5q-7 -62 -32.5 -106.5t-63.5 -71.5v30q30 26 49 62t24 87v462zM71 261q1 -45 15 -85.5t39.5 -71t63.5 -49t88 -18.5h18t18 2v-23q-20 -3 -37 -3q-43 0 -83.5 15.5t-72.5 46t-52 77t-21 109.5v437h25z" />
    <glyph glyph-name="V" unicode="V" horiz-adv-x="563" 
d="M531 571l-225 -571h-30l-293 699h27l281 -666l210 538h30z" />
    <glyph glyph-name="W" unicode="W" horiz-adv-x="809" 
d="M543 0h-33l-119 321l-124 -321h-28l-256 700h29l243 -669l120 332l-47 137h30l168 -469l265 669h28z" />
    <glyph glyph-name="X" unicode="X" horiz-adv-x="584" 
d="M147 546l120 -172l227 326h32l-243 -349l244 -351h-32l-228 328l-229 -328h-32l245 351l-135 195h31z" />
    <glyph glyph-name="Y" unicode="Y" horiz-adv-x="484" 
d="M7 700l267 -393l190 293h29l-206 -319v-281h-26v283l-283 417h29z" />
    <glyph glyph-name="Z" unicode="Z" horiz-adv-x="680" 
d="M36 30l530 646h-470v24h515l-2 -20l-535 -652h522v-26h-561z" />
    <glyph glyph-name="bracketleft" unicode="[" horiz-adv-x="340" 
d="M88 29h185v-29h-214v701h214v-25h-185v-647z" />
    <glyph glyph-name="backslash" unicode="\" horiz-adv-x="324" 
d="M50 700l243 -700h-28l-245 700h30z" />
    <glyph glyph-name="bracketright" unicode="]" horiz-adv-x="319" 
d="M237 676h-185v25h214v-701h-214v29h185v647z" />
    <glyph glyph-name="underscore" unicode="_" horiz-adv-x="604" 
d="M99 20h401v-20h-401v20z" />
    <glyph glyph-name="grave" unicode="`" horiz-adv-x="833" 
d="M287 702l-43 38h76l46 -38h-79zM357 664l-89 76h31l90 -76h-32z" />
    <glyph glyph-name="a" unicode="a" 
d="M-4 0l258 730h36l270 -730h-29l-259 708q-40 -112 -78.5 -221t-77.5 -219h263v-25h-272q-21 -62 -41.5 -121t-42.5 -122h-27z" />
    <glyph glyph-name="b" unicode="b" horiz-adv-x="610" 
d="M526 534q0 -24 -7.5 -47.5t-20.5 -43t-30.5 -35t-36.5 -24.5q115 -56 137 -153q8 -32 5 -69q-3 -32 -16 -61.5t-34.5 -52t-52.5 -35.5t-71 -13h-334v709h290q41 0 73 -15t53.5 -40t33 -56t11.5 -64zM545 187q0 17 -6 44q-27 91 -145 138l-35 -1h-267v-339h298q42 0 71 13
t48 35t27.5 50.5t8.5 59.5zM92 682v-288h265q29 1 54.5 11.5t44.5 29t30 43.5t11 56q0 29 -8 55.5t-26 47t-46.5 33t-69.5 12.5h-255z" />
    <glyph glyph-name="c" unicode="c" horiz-adv-x="656" 
d="M375 699q-63 0 -119.5 -26.5t-99 -71.5t-67.5 -105.5t-26 -128.5q0 -68 25.5 -130t69.5 -110t103.5 -76.5t127.5 -28.5q53 0 105 19.5t100 64.5h35q-56 -60 -116.5 -85t-123.5 -25q-74 0 -138 31t-111.5 82.5t-75 118.5t-27.5 139q0 74 27 139t72.5 113t106 76t129.5 28
q83 0 142 -27.5t107 -93.5h-31q-42 51 -93.5 74t-121.5 23z" />
    <glyph glyph-name="d" unicode="d" horiz-adv-x="630" 
d="M62 709h236q65 0 120 -30.5t94.5 -79.5t62 -111t22.5 -125q0 -15 -1.5 -29.5t-3.5 -28.5q-12 -90 -42.5 -148.5t-83 -93.5t-129.5 -49t-182 -14h-93v709zM93 26q16 -1 31.5 -0.5t30.5 0.5q105 0 180.5 15t125.5 52.5t76.5 101t34.5 161.5v11q0 67 -24.5 125.5t-63 101.5
t-85.5 67.5t-93 24.5l-14 -1h-199v-659z" />
    <glyph glyph-name="e" unicode="e" horiz-adv-x="625" 
d="M95 322v-292h473v-30h-503v701h117v-25h-87v-324h428v-30h-428zM334 700h221v-24h-221v24z" />
    <glyph glyph-name="f" unicode="f" horiz-adv-x="619" 
d="M585 675h-462v-323h422v-30h-422v-322h-30v701h492v-26z" />
    <glyph glyph-name="g" unicode="g" horiz-adv-x="632" 
d="M573 0h-250q-133 17 -206.5 94.5t-83.5 205.5q-2 14 -3 26t-1.5 23.5t-0.5 24t1 27.5q6 83 33 142t66.5 96.5t86.5 55.5t94 18h36q18 0 43.5 -2.5t51.5 -10t49 -21t35 -36.5h-34q-9 10 -22.5 18t-28.5 13.5t-30.5 9t-28.5 5.5q-15 1 -29.5 1.5t-28.5 0.5h-14
q-46 -2 -89.5 -21.5t-78 -56t-57 -89t-25.5 -119.5q-1 -10 -1.5 -19.5t0.5 -17.5q-1 -47 8.5 -102t38.5 -104t82 -86t140 -49h217v305h-257v30h287v-362z" />
    <glyph glyph-name="h" unicode="h" horiz-adv-x="616" 
d="M108 320v-320h-28v700h28v-353h425v353h28v-555h-28v175h-425z" />
    <glyph glyph-name="i" unicode="i" horiz-adv-x="218" 
d="M128 700v-700h-26v700h26z" />
    <glyph glyph-name="j" unicode="j" horiz-adv-x="586" 
d="M65 263q0 -44 8 -76.5t22.5 -56.5t35 -41t44.5 -30q2 -1 2.5 -1.5t2.5 -1.5q7 -4 13.5 -6.5t13.5 -5.5q41 -16 87 -16q37 0 69.5 12.5t58 37t41 61.5t18.5 87v5t0.5 19.5t1 45.5t0.5 82v130.5v190.5h27v-473q-2 -57 -20 -99t-47.5 -70t-68 -41.5t-80.5 -13.5
q-30 0 -48.5 2t-38.5 11v-1q-88 29 -127.5 91.5t-41.5 157.5h27z" />
    <glyph glyph-name="k" unicode="k" horiz-adv-x="612" 
d="M122 700v-348l385 348h43l-284 -255l148 -206h-35l-135 185l-124 -112v-312h-32v700h34zM432 166h37l119 -166h-35z" />
    <glyph glyph-name="l" unicode="l" horiz-adv-x="597" 
d="M76 0v700h29v-670h479v-30h-508z" />
    <glyph glyph-name="m" unicode="m" horiz-adv-x="752" 
d="M667 100v564l-276 -670h-34l-274 670v-664h-29v705h44l276 -682l276 682h44v-605h-27z" />
    <glyph glyph-name="n" unicode="n" horiz-adv-x="650" 
d="M309 399l243 -359v665h27v-705h-34l-267 399h31zM105 658v-510h-29v553h31l119 -176h-30z" />
    <glyph glyph-name="o" unicode="o" horiz-adv-x="731" 
d="M58 356q0 -45 10 -86t28 -77h-28q-17 37 -26 77.5t-9 85.5q0 75 26 142t71.5 116.5t106.5 78.5t131 29q69 0 130 -29t106.5 -78.5t72 -116.5t26.5 -142q0 -76 -26.5 -142.5t-72 -116.5t-106.5 -79t-130 -29q-30 0 -58 6v26q28 -6 58 -6q64 0 120.5 27t98.5 73t66.5 108
t24.5 133q0 70 -24.5 132t-66.5 108t-98.5 73t-120.5 27q-65 0 -121.5 -27t-98.5 -73t-66 -108t-24 -132z" />
    <glyph glyph-name="p" unicode="p" horiz-adv-x="640" 
d="M64 0v571h28v-216h315q48 1 89 37.5t61 98.5q4 14 4.5 25.5t0.5 20.5q0 29 -10 57t-29 50t-47 35.5t-64 13.5h-179v23h186q49 0 84.5 -21t56.5 -53.5t27 -72.5t-3 -78q-6 -29 -22 -58t-39.5 -52.5t-53 -38.5t-61.5 -15h-316v-327h-28z" />
    <glyph glyph-name="q" unicode="q" horiz-adv-x="727" 
d="M531 49v-19q-74 -43 -159 -43q-70 0 -131 29t-106.5 79t-71.5 116.5t-26 142.5q0 75 26 142t71.5 116.5t106.5 78.5t131 29q69 0 130 -29t106.5 -78.5t72 -116.5t26.5 -142q0 -24 -3 -46h-25q3 22 3 46q0 70 -24.5 132t-66.5 108t-98.5 73t-120.5 27q-65 0 -121.5 -27
t-98.5 -73t-66 -108t-24 -132q0 -71 24 -133t66 -108t98.5 -73t121.5 -27q81 0 152 43v-7h7zM429 185l236 -313l-23 -19l-236 313z" />
    <glyph glyph-name="r" unicode="r" horiz-adv-x="636" 
d="M388 337l189 -337h-37l-182 337h-266v-337h-27v710h354q42 0 74 -15.5t53 -40t32 -56t11 -64.5q0 -32 -10 -64t-31 -59t-52.5 -47t-74.5 -27h-33zM92 366h325q35 7 61.5 23.5t44.5 39t27.5 49.5t9.5 55q0 23 -4 36q-5 24 -15.5 44.5t-27.5 36.5t-40.5 25t-53.5 9h-327
v-318z" />
    <glyph glyph-name="s" unicode="s" horiz-adv-x="587" 
d="M537 177q0 -36 -14.5 -69.5t-42.5 -59t-68.5 -40.5t-92.5 -14v26q46 -1 81.5 12t60 35t37.5 50.5t13 59.5q0 32 -15.5 63.5t-47 57t-79 42.5t-110.5 20q-30 3 -67 13t-69.5 27.5t-54 43t-20.5 59.5h26q-1 -29 20 -50t50 -35.5t61 -22t54 -9.5q72 -2 124.5 -21t86.5 -48.5
t50.5 -66t16.5 -73.5zM287 728q87 0 136 -44t72 -115h-26q-21 61 -64 97t-118 36q-11 0 -26 -1t-29 -3v26q14 2 28 3t27 1zM16 186h13q5 -64 44 -107.5t97 -57.5v-26q-70 14 -115.5 65t-51.5 126h13z" />
    <glyph glyph-name="t" unicode="t" horiz-adv-x="549" 
d="M554 671h-280v-671h-30v671h-243v28h553v-28z" />
    <glyph glyph-name="u" unicode="u" horiz-adv-x="675" 
d="M572 698h24v-406v-28v-16t-0.5 -8.5t-0.5 -4.5q-7 -62 -32.5 -106.5t-63.5 -71.5v30q30 26 49 62t24 87v462zM71 261q1 -45 15 -85.5t39.5 -71t63.5 -49t88 -18.5h18t18 2v-23q-20 -3 -37 -3q-43 0 -83.5 15.5t-72.5 46t-52 77t-21 109.5v437h25z" />
    <glyph glyph-name="v" unicode="v" horiz-adv-x="563" 
d="M531 571l-225 -571h-30l-293 699h27l281 -666l210 538h30z" />
    <glyph glyph-name="w" unicode="w" horiz-adv-x="809" 
d="M543 0h-33l-119 321l-124 -321h-28l-256 700h29l243 -669l120 332l-47 137h30l168 -469l265 669h28z" />
    <glyph glyph-name="x" unicode="x" horiz-adv-x="584" 
d="M147 546l120 -172l227 326h32l-243 -349l244 -351h-32l-228 328l-229 -328h-32l245 351l-135 195h31z" />
    <glyph glyph-name="y" unicode="y" horiz-adv-x="484" 
d="M7 700l267 -393l190 293h29l-206 -319v-281h-26v283l-283 417h29z" />
    <glyph glyph-name="z" unicode="z" horiz-adv-x="680" 
d="M36 30l530 646h-470v24h515l-2 -20l-535 -652h522v-26h-561z" />
    <glyph glyph-name="braceleft" unicode="{" horiz-adv-x="340" 
d="M88 29h185v-29h-214v701h214v-25h-185v-647z" />
    <glyph glyph-name="bar" unicode="|" horiz-adv-x="218" 
d="M129 700v-700l-26 -1v700z" />
    <glyph glyph-name="braceright" unicode="}" horiz-adv-x="319" 
d="M52 701h214v-701h-214v29h185v647h-185v25z" />
    <glyph glyph-name="asciitilde" unicode="~" horiz-adv-x="693" 
d="M269 304h5q44 0 72 -18t53 -39q20 -18 44 -33.5t59 -15.5q34 0 60 25v-30q-15 -10 -30.5 -14t-29.5 -4q-41 0 -69 17.5t-51 38.5q-22 18 -46.5 34.5t-61.5 16.5h-5v22z" />
    <glyph glyph-name="dieresis" unicode="&#xa8;" horiz-adv-x="174" 
d="M10 753v51h35v-51h-35zM125 753v51h35v-51h-35z" />
    <glyph glyph-name="logicalnot" unicode="&#xac;" horiz-adv-x="546" 
d="M99 301h332v-132h-24v112h-308v20z" />
    <glyph glyph-name="uni00AD" unicode="&#xad;" horiz-adv-x="410" 
d="M99 301h235v-20h-235v20z" />
    <glyph glyph-name="acute" unicode="&#xb4;" horiz-adv-x="292" 
d="M101 702l46 38h76l-43 -38h-79zM78 664l90 76h31l-89 -76h-32z" />
    <glyph glyph-name="periodcentered" unicode="&#xb7;" horiz-adv-x="228" 
d="M97 306v51h35v-51h-35z" />
    <glyph glyph-name="Agrave" unicode="&#xc0;" 
d="M23 0q22 63 42.5 122t41.5 121h272v25h-263q39 110 77.5 219t78.5 221l259 -708h29l-270 730h-36l-258 -730h27zM248 764l-69 56h31l70 -56h-32z" />
    <glyph glyph-name="Aacute" unicode="&#xc1;" horiz-adv-x="578" 
d="M277 764l70 56h31l-69 -56h-32zM-4 0l258 730h36l270 -730h-29l-259 708q-40 -112 -78.5 -221t-77.5 -219h263v-25h-272q-21 -62 -41.5 -121t-42.5 -122h-27z" />
    <glyph glyph-name="Atilde" unicode="&#xc3;" 
d="M171 859h5q44 0 72 -18t53 -39q20 -18 44 -33.5t59 -15.5q34 0 60 25v-30q-15 -10 -30.5 -14t-29.5 -4q-41 0 -69 17.5t-51 38.5q-22 18 -46.5 34.5t-61.5 16.5h-5v22zM-4 0l258 730h36l270 -730h-29l-259 708q-40 -112 -78.5 -221t-77.5 -219h263v-25h-272
q-21 -62 -41.5 -121t-42.5 -122h-27z" />
    <glyph glyph-name="Adieresis" unicode="&#xc4;" 
d="M-4 0l258 730h36l270 -730h-29l-259 708q-40 -112 -78.5 -221t-77.5 -219h263v-25h-272q-21 -62 -41.5 -121t-42.5 -122h-27zM197 755v51h35v-51h-35zM312 755v51h35v-51h-35z" />
    <glyph glyph-name="Egrave" unicode="&#xc8;" horiz-adv-x="623" 
d="M304 764l-69 56h31l70 -56h-32zM543 322v30h-428v324h87v25h-117v-701h503v30h-473v292h428zM354 676h221v24h-221v-24z" />
    <glyph glyph-name="Eacute" unicode="&#xc9;" horiz-adv-x="623" 
d="M291 764l70 56h31l-69 -56h-32zM115 322v-292h473v-30h-503v701h117v-25h-87v-324h428v-30h-428zM354 700h221v-24h-221v24z" />
    <glyph glyph-name="Edieresis" unicode="&#xcb;" horiz-adv-x="625" 
d="M95 322v-292h473v-30h-503v701h117v-25h-87v-324h428v-30h-428zM334 700h221v-24h-221v24zM237 762v51h35v-51h-35zM352 762v51h35v-51h-35z" />
    <glyph glyph-name="Igrave" unicode="&#xcc;" horiz-adv-x="187" 
d="M34 764l-69 56h31l70 -56h-32zM62 700v-700h26v700h-26z" />
    <glyph glyph-name="Iacute" unicode="&#xcd;" horiz-adv-x="187" 
d="M101 764l70 56h31l-69 -56h-32zM108 700v-700h-26v700h26z" />
    <glyph glyph-name="Idieresis" unicode="&#xcf;" horiz-adv-x="218" 
d="M128 700v-700h-26v700h26zM41 762v51h35v-51h-35zM156 762v51h35v-51h-35z" />
    <glyph glyph-name="Ntilde" unicode="&#xd1;" horiz-adv-x="648" 
d="M180 741q14 41 38.5 60t56.5 20v-15h3q26 0 43.5 -11t32.5 -24q13 -11 27.5 -20.5t35.5 -9.5q20 0 37 15v-18q-17 -11 -37 -11q-25 0 -42 10.5t-31 23.5q-14 11 -28.5 21t-37.5 10h-3v-21q-15 -2 -27 -12.5t-20 -33.5zM310 399l243 -359v665h27v-705h-34l-267 399h31z
M106 658v-510h-29v553h31l119 -176h-30z" />
    <glyph glyph-name="Ograve" unicode="&#xd2;" horiz-adv-x="772" 
d="M398 764l-69 56h31l70 -56h-32zM78 356q0 70 24 132t66 108t98.5 73t121.5 27q64 0 120.5 -27t98.5 -73t66.5 -108t24.5 -132q0 -71 -24.5 -133t-66.5 -108t-98.5 -73t-120.5 -27q-30 0 -58 6v-26q28 -6 58 -6q69 0 130 29t106.5 79t72 116.5t26.5 142.5q0 75 -26.5 142
t-72 116.5t-106.5 78.5t-130 29q-70 0 -131 -29t-106.5 -78.5t-71.5 -116.5t-26 -142q0 -45 9 -85.5t26 -77.5h28q-18 36 -28 77t-10 86z" />
    <glyph glyph-name="Oacute" unicode="&#xd3;" horiz-adv-x="772" 
d="M325 764l70 56h31l-69 -56h-32zM68 356q0 -45 10 -86t28 -77h-28q-17 37 -26 77.5t-9 85.5q0 75 26 142t71.5 116.5t106.5 78.5t131 29q69 0 130 -29t106.5 -78.5t72 -116.5t26.5 -142q0 -76 -26.5 -142.5t-72 -116.5t-106.5 -79t-130 -29q-30 0 -58 6v26q28 -6 58 -6
q64 0 120.5 27t98.5 73t66.5 108t24.5 133q0 70 -24.5 132t-66.5 108t-98.5 73t-120.5 27q-65 0 -121.5 -27t-98.5 -73t-66 -108t-24 -132z" />
    <glyph glyph-name="Otilde" unicode="&#xd5;" horiz-adv-x="731" 
d="M272 859h5q44 0 72 -18t53 -39q20 -18 44 -33.5t59 -15.5q34 0 60 25v-30q-15 -10 -30.5 -14t-29.5 -4q-41 0 -69 17.5t-51 38.5q-22 18 -46.5 34.5t-61.5 16.5h-5v22zM68 356q0 -45 10 -86t28 -77h-28q-17 37 -26 77.5t-9 85.5q0 75 26 142t71.5 116.5t106.5 78.5
t131 29q69 0 130 -29t106.5 -78.5t72 -116.5t26.5 -142q0 -76 -26.5 -142.5t-72 -116.5t-106.5 -79t-130 -29q-30 0 -58 6v26q28 -6 58 -6q64 0 120.5 27t98.5 73t66.5 108t24.5 133q0 70 -24.5 132t-66.5 108t-98.5 73t-120.5 27q-65 0 -121.5 -27t-98.5 -73t-66 -108
t-24 -132z" />
    <glyph glyph-name="Odieresis" unicode="&#xd6;" horiz-adv-x="731" 
d="M58 356q0 -45 10 -86t28 -77h-28q-17 37 -26 77.5t-9 85.5q0 75 26 142t71.5 116.5t106.5 78.5t131 29q69 0 130 -29t106.5 -78.5t72 -116.5t26.5 -142q0 -76 -26.5 -142.5t-72 -116.5t-106.5 -79t-130 -29q-30 0 -58 6v26q28 -6 58 -6q64 0 120.5 27t98.5 73t66.5 108
t24.5 133q0 70 -24.5 132t-66.5 108t-98.5 73t-120.5 27q-65 0 -121.5 -27t-98.5 -73t-66 -108t-24 -132zM290 762v51h35v-51h-35zM405 762v51h35v-51h-35z" />
    <glyph glyph-name="multiply" unicode="&#xd7;" horiz-adv-x="410" 
d="M348 306l-108 -153l117 -153h-55l-90 118l-89 -118h-49l113 153l-110 153h51l84 -115l84 115h52z" />
    <glyph glyph-name="Ugrave" unicode="&#xd9;" horiz-adv-x="617" 
d="M345 764l-69 56h31l70 -56h-32zM562 236q-5 -51 -24 -87t-49 -62v-30q38 27 63.5 71.5t32.5 106.5q0 2 0.5 4.5t0.5 8.5v16v28v406h-24v-462zM62 698h-25v-437q1 -63 21 -109.5t52 -77t72.5 -46t83.5 -15.5q17 0 37 3v23q-9 -2 -18 -2h-18q-50 0 -88 18.5t-63.5 49
t-39.5 71t-15 85.5z" />
    <glyph glyph-name="Uacute" unicode="&#xda;" horiz-adv-x="634" 
d="M282 764l70 56h31l-69 -56h-32zM572 698h24v-406v-28v-16t-0.5 -8.5t-0.5 -4.5q-7 -62 -32.5 -106.5t-63.5 -71.5v30q30 26 49 62t24 87v462zM71 261q1 -45 15 -85.5t39.5 -71t63.5 -49t88 -18.5h18t18 2v-23q-20 -3 -37 -3q-43 0 -83.5 15.5t-72.5 46t-52 77t-21 109.5
v437h25z" />
    <glyph glyph-name="Udieresis" unicode="&#xdc;" horiz-adv-x="641" 
d="M572 698h24v-406v-28v-16t-0.5 -8.5t-0.5 -4.5q-7 -62 -32.5 -106.5t-63.5 -71.5v30q30 26 49 62t24 87v462zM71 261q1 -45 15 -85.5t39.5 -71t63.5 -49t88 -18.5h18t18 2v-23q-20 -3 -37 -3q-43 0 -83.5 15.5t-72.5 46t-52 77t-21 109.5v437h25zM262 762v51h35v-51h-35z
M377 762v51h35v-51h-35z" />
    <glyph glyph-name="Yacute" unicode="&#xdd;" horiz-adv-x="486" 
d="M246 764l70 56h31l-69 -56h-32zM7 700l267 -393l190 293h29l-206 -319v-281h-26v283l-283 417h29z" />
    <glyph glyph-name="agrave" unicode="&#xe0;" 
d="M23 0q22 63 42.5 122t41.5 121h272v25h-263q39 110 77.5 219t78.5 221l259 -708h29l-270 730h-36l-258 -730h27zM248 764l-69 56h31l70 -56h-32z" />
    <glyph glyph-name="aacute" unicode="&#xe1;" horiz-adv-x="578" 
d="M277 764l70 56h31l-69 -56h-32zM-4 0l258 730h36l270 -730h-29l-259 708q-40 -112 -78.5 -221t-77.5 -219h263v-25h-272q-21 -62 -41.5 -121t-42.5 -122h-27z" />
    <glyph glyph-name="atilde" unicode="&#xe3;" 
d="M171 859h5q44 0 72 -18t53 -39q20 -18 44 -33.5t59 -15.5q34 0 60 25v-30q-15 -10 -30.5 -14t-29.5 -4q-41 0 -69 17.5t-51 38.5q-22 18 -46.5 34.5t-61.5 16.5h-5v22zM-4 0l258 730h36l270 -730h-29l-259 708q-40 -112 -78.5 -221t-77.5 -219h263v-25h-272
q-21 -62 -41.5 -121t-42.5 -122h-27z" />
    <glyph glyph-name="adieresis" unicode="&#xe4;" 
d="M-4 0l258 730h36l270 -730h-29l-259 708q-40 -112 -78.5 -221t-77.5 -219h263v-25h-272q-21 -62 -41.5 -121t-42.5 -122h-27zM197 755v51h35v-51h-35zM312 755v51h35v-51h-35z" />
    <glyph glyph-name="egrave" unicode="&#xe8;" horiz-adv-x="623" 
d="M304 764l-69 56h31l70 -56h-32zM543 322v30h-428v324h87v25h-117v-701h503v30h-473v292h428zM354 676h221v24h-221v-24z" />
    <glyph glyph-name="eacute" unicode="&#xe9;" horiz-adv-x="623" 
d="M291 764l70 56h31l-69 -56h-32zM115 322v-292h473v-30h-503v701h117v-25h-87v-324h428v-30h-428zM354 700h221v-24h-221v24z" />
    <glyph glyph-name="edieresis" unicode="&#xeb;" horiz-adv-x="625" 
d="M95 322v-292h473v-30h-503v701h117v-25h-87v-324h428v-30h-428zM334 700h221v-24h-221v24zM237 762v51h35v-51h-35zM352 762v51h35v-51h-35z" />
    <glyph glyph-name="igrave" unicode="&#xec;" horiz-adv-x="187" 
d="M34 764l-69 56h31l70 -56h-32zM62 700v-700h26v700h-26z" />
    <glyph glyph-name="iacute" unicode="&#xed;" horiz-adv-x="187" 
d="M101 764l70 56h31l-69 -56h-32zM108 700v-700h-26v700h26z" />
    <glyph glyph-name="idieresis" unicode="&#xef;" horiz-adv-x="218" 
d="M128 700v-700h-26v700h26zM41 762v51h35v-51h-35zM156 762v51h35v-51h-35z" />
    <glyph glyph-name="ntilde" unicode="&#xf1;" horiz-adv-x="648" 
d="M180 741q14 41 38.5 60t56.5 20v-15h3q26 0 43.5 -11t32.5 -24q13 -11 27.5 -20.5t35.5 -9.5q20 0 37 15v-18q-17 -11 -37 -11q-25 0 -42 10.5t-31 23.5q-14 11 -28.5 21t-37.5 10h-3v-21q-15 -2 -27 -12.5t-20 -33.5zM310 399l243 -359v665h27v-705h-34l-267 399h31z
M106 658v-510h-29v553h31l119 -176h-30z" />
    <glyph glyph-name="ograve" unicode="&#xf2;" horiz-adv-x="772" 
d="M398 764l-69 56h31l70 -56h-32zM78 356q0 70 24 132t66 108t98.5 73t121.5 27q64 0 120.5 -27t98.5 -73t66.5 -108t24.5 -132q0 -71 -24.5 -133t-66.5 -108t-98.5 -73t-120.5 -27q-30 0 -58 6v-26q28 -6 58 -6q69 0 130 29t106.5 79t72 116.5t26.5 142.5q0 75 -26.5 142
t-72 116.5t-106.5 78.5t-130 29q-70 0 -131 -29t-106.5 -78.5t-71.5 -116.5t-26 -142q0 -45 9 -85.5t26 -77.5h28q-18 36 -28 77t-10 86z" />
    <glyph glyph-name="oacute" unicode="&#xf3;" horiz-adv-x="772" 
d="M325 764l70 56h31l-69 -56h-32zM68 356q0 -45 10 -86t28 -77h-28q-17 37 -26 77.5t-9 85.5q0 75 26 142t71.5 116.5t106.5 78.5t131 29q69 0 130 -29t106.5 -78.5t72 -116.5t26.5 -142q0 -76 -26.5 -142.5t-72 -116.5t-106.5 -79t-130 -29q-30 0 -58 6v26q28 -6 58 -6
q64 0 120.5 27t98.5 73t66.5 108t24.5 133q0 70 -24.5 132t-66.5 108t-98.5 73t-120.5 27q-65 0 -121.5 -27t-98.5 -73t-66 -108t-24 -132z" />
    <glyph glyph-name="otilde" unicode="&#xf5;" horiz-adv-x="731" 
d="M272 859h5q44 0 72 -18t53 -39q20 -18 44 -33.5t59 -15.5q34 0 60 25v-30q-15 -10 -30.5 -14t-29.5 -4q-41 0 -69 17.5t-51 38.5q-22 18 -46.5 34.5t-61.5 16.5h-5v22zM68 356q0 -45 10 -86t28 -77h-28q-17 37 -26 77.5t-9 85.5q0 75 26 142t71.5 116.5t106.5 78.5
t131 29q69 0 130 -29t106.5 -78.5t72 -116.5t26.5 -142q0 -76 -26.5 -142.5t-72 -116.5t-106.5 -79t-130 -29q-30 0 -58 6v26q28 -6 58 -6q64 0 120.5 27t98.5 73t66.5 108t24.5 133q0 70 -24.5 132t-66.5 108t-98.5 73t-120.5 27q-65 0 -121.5 -27t-98.5 -73t-66 -108
t-24 -132z" />
    <glyph glyph-name="odieresis" unicode="&#xf6;" horiz-adv-x="731" 
d="M58 356q0 -45 10 -86t28 -77h-28q-17 37 -26 77.5t-9 85.5q0 75 26 142t71.5 116.5t106.5 78.5t131 29q69 0 130 -29t106.5 -78.5t72 -116.5t26.5 -142q0 -76 -26.5 -142.5t-72 -116.5t-106.5 -79t-130 -29q-30 0 -58 6v26q28 -6 58 -6q64 0 120.5 27t98.5 73t66.5 108
t24.5 133q0 70 -24.5 132t-66.5 108t-98.5 73t-120.5 27q-65 0 -121.5 -27t-98.5 -73t-66 -108t-24 -132zM290 762v51h35v-51h-35zM405 762v51h35v-51h-35z" />
    <glyph glyph-name="ugrave" unicode="&#xf9;" horiz-adv-x="617" 
d="M345 764l-69 56h31l70 -56h-32zM562 236q-5 -51 -24 -87t-49 -62v-30q38 27 63.5 71.5t32.5 106.5q0 2 0.5 4.5t0.5 8.5v16v28v406h-24v-462zM62 698h-25v-437q1 -63 21 -109.5t52 -77t72.5 -46t83.5 -15.5q17 0 37 3v23q-9 -2 -18 -2h-18q-50 0 -88 18.5t-63.5 49
t-39.5 71t-15 85.5z" />
    <glyph glyph-name="uacute" unicode="&#xfa;" horiz-adv-x="634" 
d="M282 764l70 56h31l-69 -56h-32zM572 698h24v-406v-28v-16t-0.5 -8.5t-0.5 -4.5q-7 -62 -32.5 -106.5t-63.5 -71.5v30q30 26 49 62t24 87v462zM71 261q1 -45 15 -85.5t39.5 -71t63.5 -49t88 -18.5h18t18 2v-23q-20 -3 -37 -3q-43 0 -83.5 15.5t-72.5 46t-52 77t-21 109.5
v437h25z" />
    <glyph glyph-name="udieresis" unicode="&#xfc;" horiz-adv-x="641" 
d="M572 698h24v-406v-28v-16t-0.5 -8.5t-0.5 -4.5q-7 -62 -32.5 -106.5t-63.5 -71.5v30q30 26 49 62t24 87v462zM71 261q1 -45 15 -85.5t39.5 -71t63.5 -49t88 -18.5h18t18 2v-23q-20 -3 -37 -3q-43 0 -83.5 15.5t-72.5 46t-52 77t-21 109.5v437h25zM262 762v51h35v-51h-35z
M377 762v51h35v-51h-35z" />
    <glyph glyph-name="yacute" unicode="&#xfd;" horiz-adv-x="486" 
d="M246 764l70 56h31l-69 -56h-32zM7 700l267 -393l190 293h29l-206 -319v-281h-26v283l-283 417h29z" />
    <glyph glyph-name="ydieresis" unicode="&#xff;" horiz-adv-x="486" 
d="M7 700l267 -393l190 293h29l-206 -319v-281h-26v283l-283 417h29zM168 753v51h35v-51h-35zM283 753v51h35v-51h-35z" />
    <glyph glyph-name="glyph11" horiz-adv-x="654" 
d="M182 809q14 41 38.5 60t56.5 20v-15h3q26 0 43.5 -11t32.5 -24q13 -11 27.5 -20.5t35.5 -9.5q20 0 37 15v-18q-17 -11 -37 -11q-25 0 -42 10.5t-31 23.5q-14 11 -28.5 21t-37.5 10h-3v-21q-15 -2 -27 -12.5t-20 -33.5z" />
    <glyph glyph-name="glyph66" horiz-adv-x="693" 
d="M103 859h5q44 0 72 -18t53 -39q20 -18 44 -33.5t59 -15.5q34 0 60 25v-30q-15 -10 -30.5 -14t-29.5 -4q-41 0 -69 17.5t-51 38.5q-22 18 -46.5 34.5t-61.5 16.5h-5v22z" />
    <glyph glyph-name="glyph79" horiz-adv-x="546" 
d="M72 523q0 38 15 71.5t41 58.5t60.5 39.5t74.5 14.5t74.5 -14.5t60.5 -39.5t41 -58.5t15 -71.5q0 -37 -14 -68.5t-37 -56.5q49 -31 77.5 -81t28.5 -111q0 -48 -19 -90t-51.5 -73.5t-76 -49.5t-93.5 -18t-93.5 18t-76 49.5t-51.5 73.5t-19 90q0 58 26 107t72 80
q-25 26 -40 59t-15 71zM479 206q0 27 -9 53.5t-26 51.5q-26 41 -56.5 52.5t-60.5 11.5q-14 0 -28 -1.5t-29 -3.5t-29.5 -3.5t-29.5 -1.5q-14 0 -27 2t-27 7q-45 -34 -71.5 -78.5t-26.5 -89.5q0 -42 16.5 -78.5t45 -63.5t66.5 -43t82 -16q43 0 81.5 16t67 43t45 63.5
t16.5 78.5zM102 523q0 -29 13.5 -58t38.5 -56q14 -9 28.5 -11.5t28.5 -2.5q12 0 26 1.5t29 3.5t29.5 3.5t31.5 1.5q18 0 36 -3q28 29 44.5 60t16.5 61q0 32 -12.5 60t-34.5 49t-51.5 33t-62.5 12t-62.5 -12t-51.5 -33t-34.5 -49t-12.5 -60z" />
    <glyph glyph-name="glyph81" horiz-adv-x="0" 
d="M31 168q12 -97 67 -144.5t148 -47.5q87 0 139 30.5t79 81.5t35 118t8 140q0 47 -2 87.5t-3 54.5q-1 51 -19.5 95t-51 76.5t-75 51t-91.5 18.5t-91.5 -19t-74.5 -51t-50.5 -76t-18.5 -93q0 -50 18.5 -93t50.5 -75.5t74.5 -51t91.5 -18.5q70 0 126.5 37t85.5 97v-40
q0 -67 -7 -128.5t-31 -108.5t-69.5 -75t-123.5 -28q-80 0 -127 41t-58 125zM60 490q0 43 16 81t44 66.5t65.5 45t79.5 16.5t79.5 -16.5t65.5 -45t44.5 -66.5t16.5 -81t-16.5 -81t-44.5 -66t-65.5 -44.5t-79.5 -16.5t-79.5 16.5t-65.5 44.5t-44 66t-16 81zM31 168
q12 -97 67 -144.5t148 -47.5q87 0 139 30.5t79 81.5t35 118t8 140q0 47 -2 87.5t-3 54.5q-1 51 -19.5 95t-51 76.5t-75 51t-91.5 18.5t-91.5 -19t-74.5 -51t-50.5 -76t-18.5 -93q0 -50 18.5 -93t50.5 -75.5t74.5 -51t91.5 -18.5q70 0 126.5 37t85.5 97v-40q0 -67 -7 -128.5
t-31 -108.5t-69.5 -75t-123.5 -28q-80 0 -127 41t-58 125zM60 490q0 43 16 81t44 66.5t65.5 45t79.5 16.5t79.5 -16.5t65.5 -45t44.5 -66.5t16.5 -81t-16.5 -81t-44.5 -66t-65.5 -44.5t-79.5 -16.5t-79.5 16.5t-65.5 44.5t-44 66t-16 81z" />
    <glyph glyph-name="quotedbl.001" horiz-adv-x="833" 
d="M54 713v-90h-25v90h25z" />
    </font>
</defs>
</svg>
