<?xml version="1.0" standalone="no"?>
<!DOCTYPE svg PUBLIC "-//W3C//DTD SVG 1.1//EN" "http://www.w3.org/Graphics/SVG/1.1/DTD/svg11.dtd" >
<svg xmlns="http://www.w3.org/2000/svg" xmlns:xlink="http://www.w3.org/1999/xlink" version="1.1">
<metadata>
Created by FontForge 20161013 at Wed Feb 23 10:07:45 2011
 By ,,,
Copyright (c) 2011 by Julia Martinez Diana // www.antipixel.com.ar. All rights reserved.
</metadata>
<defs>
<font id="PresaANTIPIXEL.COM.AR" horiz-adv-x="598" >
  <font-face 
    font-family="Presa ANTIPIXEL.COM.AR"
    font-weight="300"
    font-stretch="normal"
    units-per-em="1000"
    panose-1="2 1 4 4 5 1 0 2 0 4"
    ascent="800"
    descent="-200"
    x-height="698"
    cap-height="700"
    bbox="-42 -145 856 889"
    underline-thickness="15"
    underline-position="-60"
    unicode-range="U+0020-00FF"
  />
<missing-glyph horiz-adv-x="500" 
 />
    <glyph glyph-name=".notdef" horiz-adv-x="500" 
 />
    <glyph glyph-name=".null" horiz-adv-x="0" 
 />
    <glyph glyph-name="nonmarkingreturn" horiz-adv-x="333" 
 />
    <glyph glyph-name="space" unicode=" " horiz-adv-x="500" 
 />
    <glyph glyph-name="quotesingle" unicode="'" horiz-adv-x="118" 
d="M54 713v-90h-25v90h25z" />
    <glyph glyph-name="comma" unicode="," horiz-adv-x="167" 
d="M33 -36h-17l25 36h-18v51h35v-51z" />
    <glyph glyph-name="hyphen" unicode="-" horiz-adv-x="410" 
d="M99 301h235v-25h-235v25z" />
    <glyph glyph-name="period" unicode="." horiz-adv-x="183" 
d="M22 0v51h35v-51h-35z" />
    <glyph glyph-name="slash" unicode="/" horiz-adv-x="324" 
d="M293 700l-245 -700h-28l243 700h30z" />
    <glyph glyph-name="zero" unicode="0" horiz-adv-x="623" 
d="M561 346q0 -75 -20.5 -141.5t-56 -116t-83.5 -78t-102 -28.5t-102 28.5t-84 78t-56.5 116t-20.5 141.5t20.5 141.5t56.5 115.5t84 77.5t102 28.5t102 -28.5t83.5 -77.5t56 -115.5t20.5 -141.5zM531 346q0 71 -17.5 132.5t-48.5 106.5t-73.5 70.5t-92.5 25.5t-93 -25.5
t-74 -70.5t-48.5 -106.5t-17.5 -132.5t17.5 -132.5t48.5 -106.5t74 -70.5t93 -25.5t92.5 25.5t73.5 70.5t48.5 106.5t17.5 132.5zM322 730q51 0 96 -25t80 -68.5t57.5 -102.5t27.5 -128h-71q-5 54 -21 100.5t-41.5 80.5t-58 53.5t-69.5 19.5h-4v70h4z" />
    <glyph glyph-name="one" unicode="1" horiz-adv-x="361" 
d="M216 701h58v-395h-17v-315h-29v315h-21v278q-27 -32 -56 -65.5t-55 -65.5l-52 44z" />
    <glyph glyph-name="two" unicode="2" horiz-adv-x="614" 
d="M87 634q63 53 124 76.5t115 23.5q75 0 131 -37.5t80 -103.5q9 -30 9 -57q0 -61 -35.5 -117t-91.5 -109h-26q-23 -25 -49 -46.5t-50 -42.5q-26 -22 -53 -46t-52.5 -49t-48 -49.5t-38.5 -48.5h482v-28h-516v28q45 63 98 114t107 99q21 18 40 34t38 35h-30q32 29 60.5 57.5
t50 57t34 56.5t12.5 55q0 17 -5 34l1 -4q-18 47 -57 73t-91 26q-43 0 -92 -19.5t-102 -63.5l-45 52v0z" />
    <glyph glyph-name="three" unicode="3" horiz-adv-x="547" 
d="M243 422q13 -2 23.5 -3.5t21.5 -1.5q30 0 74 12q32 28 46.5 56.5t14.5 54.5t-12.5 48.5t-34 39.5t-50.5 26.5t-61 9.5q-35 0 -71 -13t-71 -43l-44 47q45 40 92.5 57.5t93.5 17.5q45 0 85.5 -15t71 -41t48.5 -60.5t18 -73.5q0 -35 -14.5 -70t-46.5 -68q38 -33 64 -69h-20
q30 -32 43 -66t13 -66q0 -44 -21 -84.5t-56.5 -71.5t-82.5 -49t-99 -18q-35 0 -76.5 12t-78.5 35.5t-61.5 58.5t-24.5 81q0 22 4 33l26 -8q-1 -2 -1 -9v-16q0 -39 22.5 -68.5t55.5 -49t69.5 -29.5t64.5 -10q46 0 88.5 15.5t74 42t50.5 61.5t19 74q0 32 -16 66t-51 66h-25
q-16 16 -37 31q-42 -12 -83 -12q-17 0 -30.5 1.5t-25.5 3.5z" />
    <glyph glyph-name="four" unicode="4" horiz-adv-x="549" 
d="M367 -12v284h-340v21l151 189h-23l199 251h62v-432h49v-29h-70v-284h-28zM349 620q-29 -38 -56.5 -71t-53.5 -67h-24q-36 -44 -72 -88.5t-74 -92.5h280v319z" />
    <glyph glyph-name="five" unicode="5" horiz-adv-x="592" 
d="M59 158q9 -39 32 -68t54.5 -47.5t68.5 -28t75 -9.5q54 0 102 19t73 57q20 29 28.5 59t8.5 59q0 54 -29 103h-24q-11 14 -23.5 27.5t-28.5 24.5q-39 26 -86 33.5t-103 7.5q-14 0 -28.5 -0.5t-28.5 -0.5h-101v325h123v-18h302v-29h-302v-21h-55v-189h33q14 0 28.5 0.5
t28.5 0.5q65 0 121 -9.5t106 -42.5q64 -45 93 -109h-21q24 -50 24 -103q0 -33 -10.5 -67.5t-29.5 -65.5q-31 -45 -85.5 -68t-115.5 -23q-42 0 -83.5 10.5t-77 32.5t-62 55t-37.5 77z" />
    <glyph glyph-name="six" unicode="6" horiz-adv-x="592" 
d="M458 683h1l-7 -21l-8 -24q-17 5 -37 9t-40 6q-45 7 -86 -0.5t-68 -32.5q-40 -37 -64.5 -89t-41.5 -128l-23 1q-3 -17 -5.5 -35t-4.5 -37q-2 -11 -2.5 -23t-1.5 -23q16 22 35 44q22 27 49 48t57.5 34t63.5 18.5t66 1.5q55 -7 95.5 -30.5t66.5 -59t36.5 -79t5.5 -91.5
q-8 -64 -39 -105t-73.5 -63.5t-90.5 -28.5t-90 -1q-68 8 -112.5 41.5t-68.5 83.5t-29.5 111.5t2.5 125.5q2 18 5 35.5t6 34.5l-19 1q20 88 50.5 154t78.5 113q39 35 96 46.5t114 3.5q21 -2 44 -7t45 -13zM129 310q-17 -20 -33 -42.5t-25 -45.5q4 -42 16 -79t34.5 -66.5
t56 -48.5t79.5 -24q37 -5 79 0.5t79.5 25t65 55t34.5 91.5q5 42 -4 80.5t-31.5 69t-58.5 51t-84 26.5q-57 6 -112.5 -17t-95.5 -76z" />
    <glyph glyph-name="seven" unicode="7" horiz-adv-x="470" 
d="M36 700l216 1v19h177v-68l-132 -347h-21l-118 -317h-31l118 317h-20l130 347h-103v19h-216v29z" />
    <glyph glyph-name="eight" unicode="8" horiz-adv-x="564" 
d="M470 407q55 -39 83 -96h-25q25 -48 25 -101q0 -49 -20.5 -91.5t-56 -74.5t-83.5 -50.5t-103 -18.5q-54 0 -102 18.5t-83.5 50.5t-56 74.5t-20.5 91.5q0 59 28 109t79 81q-27 26 -43.5 60t-16.5 72q0 39 16.5 73t44.5 59.5t66 40.5t82 15h1v18q48 0 89.5 -16.5t73 -45
t49.5 -66t18 -80.5q0 -35 -12.5 -66t-32.5 -57zM520 210q0 26 -9 51t-25 50h-28q-24 31 -51 40t-53 9t-59 -6q-3 -1 -5.5 -1t-4.5 -1v24q-15 -2 -29.5 -3t-28.5 -1q-15 0 -30 2t-29 7q-57 -29 -82 -75.5t-25 -95.5q0 -42 18 -79.5t49 -65t73 -43.5t89 -16q48 0 89.5 16
t73 43.5t49.5 65t18 79.5zM108 532q0 -29 14.5 -58.5t42.5 -56.5q14 -10 30 -12.5t32 -2.5q12 0 26.5 1t31.5 3v20q15 2 32 3.5t37 1.5h16.5t15.5 -1q23 24 37.5 50t14.5 50q0 28 -12 53t-33 43.5t-49 29.5t-59 11v22h-1q-37 0 -69 -12.5t-56 -33.5t-37.5 -49.5t-13.5 -61.5
z" />
    <glyph glyph-name="nine" unicode="9" horiz-adv-x="554" 
d="M82 490q0 -39 14.5 -73.5t39.5 -60t59 -40t72 -14.5t71.5 14.5t59 40t40.5 59.5t15 73h71v-7q1 -18 3 -56t2 -80q0 -32 -1 -63.5t-5 -61.5h-71q3 23 4.5 47.5t2.5 50.5q-35 -41 -85 -64t-107 -23q-53 0 -99.5 20t-81 55t-54.5 82t-20 101q0 22 3.5 42.5t9.5 40.5h76
q-19 -40 -19 -83zM31 168q12 -97 67 -144.5t148 -47.5q87 0 139 30.5t79 81.5t35 118t8 140q0 47 -2 87.5t-3 54.5q-1 51 -19.5 95t-51 76.5t-75 51t-91.5 18.5t-91.5 -19t-74.5 -51t-50.5 -76t-18.5 -93q0 -50 18.5 -93t50.5 -75.5t74.5 -51t91.5 -18.5q70 0 126.5 37
t85.5 97v-40q0 -67 -7 -128.5t-31 -108.5t-69.5 -75t-123.5 -28q-80 0 -127 41t-58 125zM60 490q0 43 16 81t44 66.5t65.5 45t79.5 16.5t79.5 -16.5t65.5 -45t44.5 -66.5t16.5 -81t-16.5 -81t-44.5 -66t-65.5 -44.5t-79.5 -16.5t-79.5 16.5t-65.5 44.5t-44 66t-16 81z
M31 168q12 -97 67 -144.5t148 -47.5q87 0 139 30.5t79 81.5t35 118t8 140q0 47 -2 87.5t-3 54.5q-1 51 -19.5 95t-51 76.5t-75 51t-91.5 18.5t-91.5 -19t-74.5 -51t-50.5 -76t-18.5 -93q0 -50 18.5 -93t50.5 -75.5t74.5 -51t91.5 -18.5q70 0 126.5 37t85.5 97v-40
q0 -67 -7 -128.5t-31 -108.5t-69.5 -75t-123.5 -28q-80 0 -127 41t-58 125zM60 490q0 43 16 81t44 66.5t65.5 45t79.5 16.5t79.5 -16.5t65.5 -45t44.5 -66.5t16.5 -81t-16.5 -81t-44.5 -66t-65.5 -44.5t-79.5 -16.5t-79.5 16.5t-65.5 44.5t-44 66t-16 81z" />
    <glyph glyph-name="colon" unicode=":" horiz-adv-x="107" 
d="M24 0v51h35v-51h-35zM24 254v51h35v-51h-35z" />
    <glyph glyph-name="semicolon" unicode=";" horiz-adv-x="107" 
d="M34 -36h-17l25 36h-18v51h35v-51zM24 254v51h35v-51h-35z" />
    <glyph glyph-name="equal" unicode="=" horiz-adv-x="410" 
d="M99 301h235v-24h-235v24zM99 229h235v-24h-235v24z" />
    <glyph glyph-name="A" unicode="A" 
d="M226 719h95l264 -719h-81l-231 622l-127 -344h194v-28h-229l-89 -250h-28l92 264h-27z" />
    <glyph glyph-name="B" unicode="B" horiz-adv-x="610" 
d="M65 200h-19v211h20v298h289q41 0 73 -15t53.5 -40t33 -56t11.5 -64q0 -12 -2.5 -21.5t-4.5 -14.5h13q-20 -79 -77 -113q48 -25 83.5 -65.5t45.5 -86.5h-15q2 -12 4.5 -23.5t2.5 -22.5q0 -35 -11 -68.5t-33 -60t-55 -42.5t-78 -16h-334v200zM92 29h298q42 0 71 13t48 35
t27.5 50.5t8.5 59.5q0 19 -7 46h-17q-14 43 -58 75.5t-98 44.5h-252v-153h-21v-171zM93 682v-271h268q25 6 43.5 12.5t31 16.5t21.5 24t15 34h18q7 14 7 36q0 29 -8 55.5t-26 47t-46.5 33t-69.5 12.5h-254z" />
    <glyph glyph-name="C" unicode="C" horiz-adv-x="656" 
d="M539 71q17 4 37 18.5t29 29.5h32q-6 -12 -18 -25.5t-26 -25t-28.5 -20t-25.5 -9.5v-19l-32 -12q-13 -4 -30 -8t-35 -7.5t-35.5 -5.5t-32.5 -2q-73 0 -136.5 29t-111.5 80t-76.5 119.5t-29.5 147.5h17v2q0 75 26.5 141t72 114.5t106.5 76.5t130 28q82 0 142 -27.5
t107 -94.5l-31 1q-42 51 -93.5 74t-121.5 23q-64 0 -120.5 -27t-98.5 -72.5t-66.5 -107t-24.5 -130.5v-2l20 1q1 -63 24.5 -119.5t63 -99t91 -67.5t110.5 -25h5q18 0 59.5 9.5t100.5 36.5v-25z" />
    <glyph glyph-name="D" unicode="D" horiz-adv-x="630" 
d="M64 160v549h234q65 0 120 -30.5t94.5 -79.5t62 -111t22.5 -125q0 -32 -6 -62h21q-18 -142 -93.5 -214t-211.5 -87h-264v160h21zM94 160h22v-93h183q55 6 96.5 22t71 44.5t47.5 70t27 97.5h24q3 17 5 33t2 33q0 67 -24.5 125.5t-63 101.5t-85.5 67.5t-93 24.5l-14 -1h-198
v-525z" />
    <glyph glyph-name="E" unicode="E" horiz-adv-x="625" 
d="M334 302h-216v-226h450v-76h-528v500h26v201h116v-25h-87v-176h23v-124h216v-24h189v-30h-189v-20zM334 700h221v-24h-221v24z" />
    <glyph glyph-name="F" unicode="F" horiz-adv-x="619" 
d="M585 675h-464v-211h25v-87h399v-71h-399v-306h-74v464h22v237h491v-26z" />
    <glyph glyph-name="G" unicode="G" horiz-adv-x="633" 
d="M586 160v-160h-262q-136 15 -211 86.5t-93 213.5h19q-2 14 -3.5 29.5t-1.5 32.5v39q6 83 32.5 142t65 96.5t85 55.5t93.5 18h36q18 0 43.5 -2.5t51.5 -10t49 -21t35 -36.5h-34q-9 10 -22.5 18t-28.5 13.5t-30.5 9t-28.5 5.5q-15 1 -29.5 1.5t-28.5 0.5h-14
q-46 -2 -89 -21.5t-77 -56t-55.5 -89t-24.5 -119.5v-37q0 -17 1.5 -35t4.5 -33h21q9 -56 26 -96.5t45.5 -68t69.5 -43t96 -21.5h186v89h22v172h-258v30h288v-202h21z" />
    <glyph glyph-name="H" unicode="H" horiz-adv-x="616" 
d="M362 301h-228v-301h-82v500h28v200h28v-200h26v-134h228v-19h171v353h28v-555h-28v175h-171v-19z" />
    <glyph glyph-name="I" unicode="I" horiz-adv-x="218" 
d="M129 700v-552h25v-148h-77v148l26 -1v552z" />
    <glyph glyph-name="J" unicode="J" horiz-adv-x="586" 
d="M65 284q0 -51 11.5 -87.5t31 -62t46.5 -42t58 -29.5v32q16 -7 32.5 -10t33.5 -3q32 0 61 8t51.5 26.5t38 49t21.5 76.5h28q3 24 3 52v406h28v-406q0 -28 -3 -52h25q-7 -69 -29 -115t-55.5 -74t-76.5 -39.5t-92 -11.5q-31 0 -66 8v24q-91 29 -131.5 91.5t-42.5 158.5h27z
" />
    <glyph glyph-name="K" unicode="K" horiz-adv-x="612" 
d="M122 700v-348l385 348h43l-284 -255l148 -206h-35l-135 185l-122 -112v-112h19v-200h-76v200h24v500h33zM471 166l15 -21h28l103 -145h-96l-101 145h31l-15 21h35z" />
    <glyph glyph-name="L" unicode="L" horiz-adv-x="597" 
d="M500 0h-450v300h26v400h29v-400h27v-224h368v-23h84v-30h-84v-23z" />
    <glyph glyph-name="M" unicode="M" horiz-adv-x="752" 
d="M667 100v571l-276 -677h-34l-81 206h-20l-152 353v-152h-21v-401h-29v401h-23v300h80l216 -501h-24l71 -177l276 682h44v-605h-27z" />
    <glyph glyph-name="N" unicode="N" horiz-adv-x="650" 
d="M218 567h-20l28 -42h-30l-29 42h-19l-18 26v-192h-25v-253h-28v253h-27v300h80zM309 399l243 -359v665h27v-705h-34l-267 399h31z" />
    <glyph glyph-name="O" unicode="O" horiz-adv-x="731" 
d="M610 145q33 44 51 97.5t18 113.5q0 70 -24 132t-66 107.5t-98.5 72t-120.5 26.5h-6v-23q-59 -1 -110.5 -26t-90 -68t-61 -100.5t-22.5 -122.5h-23q0 -44 10.5 -84.5t27.5 -75.5h-25q-17 35 -26.5 75.5t-9.5 84.5h-22q0 79 27.5 148.5t75 121.5t111.5 82t138 31v-19h6
q69 0 130 -28.5t106.5 -78t72 -115t26.5 -140.5q0 -60 -17 -113t-48 -98h29q-48 -77 -125 -122.5t-171 -45.5h-6v19q-33 0 -64 6v24q16 -3 31.5 -5t32.5 -2v24h6q63 0 117.5 27.5t94.5 74.5h25z" />
    <glyph glyph-name="P" unicode="P" horiz-adv-x="640" 
d="M68 0v180h-20v311h20v80h24v-80h22v-110h293q51 11 84 40.5t46 69.5h18q4 14 5.5 25.5t1.5 20.5q0 29 -10 57t-29 50t-47 35.5t-64 13.5h-179v23h186q42 0 74 -15.5t53.5 -41t32 -57.5t10.5 -65q0 -11 -2.5 -23t-4.5 -23h14q-12 -58 -55.5 -104.5t-117.5 -59.5h-309v-147
h-22v-180h-24z" />
    <glyph glyph-name="Q" unicode="Q" horiz-adv-x="727" 
d="M37 359q0 75 25.5 141t70 115t105.5 77.5t132 28.5q72 0 133.5 -28.5t107 -77.5t71 -115t25.5 -141q0 -103 -46.5 -183t-124.5 -129l114 -150l-57 -42l-106 139q-28 -9 -56.5 -12.5t-60.5 -3.5q-73 0 -137 29.5t-111.5 80.5t-76 119.5t-29.5 147.5h21l-2 4h2zM441 172
l80 -106q35 22 64 53t50 68.5t33 81t12 90.5q0 70 -24 131.5t-66 107t-98.5 71.5t-121.5 26q-62 0 -118 -26t-98.5 -71.5t-67.5 -107t-25 -131.5v-4h22q1 -64 24 -120t62 -98t90.5 -66.5t110.5 -24.5q18 0 35.5 2t34.5 7l-55 73z" />
    <glyph glyph-name="R" unicode="R" horiz-adv-x="636" 
d="M388 337l189 -337h-37l-182 337h-246v-108h-20v-229h-27v229h-20v498h205v-17h169q42 0 74 -15.5t53 -40t32 -56t11 -64.5q0 -32 -10 -64t-31 -59t-52.5 -47t-74.5 -27h-33zM112 366h305q35 7 61.5 23.5t44.5 39t27.5 49.5t9.5 55q0 23 -4 36q-10 48 -43.5 80t-93.5 32
h-169v-21h-138v-294z" />
    <glyph glyph-name="S" unicode="S" horiz-adv-x="587" 
d="M351 0q-9 -1 -18.5 -1.5t-18.5 -0.5v21h18.5t18.5 2v17q27 5 53 14t46.5 24.5t33.5 38t13 54.5q0 51 -21 83t-54 50.5t-73 27.5t-78 15q-5 1 -8.5 1.5t-8.5 0.5v16q-33 4 -69 12t-66.5 23t-51.5 38.5t-25 59.5h22q6 -33 32 -55t57.5 -35t60 -17.5t40.5 -4.5v20l24 -3
q25 -3 54 -8.5t59 -15t57.5 -25t49 -40t35 -60t13.5 -83.5q0 -47 -16.5 -80.5t-44 -56t-62.5 -35t-72 -17.5v20zM451 560q-8 42 -24 66t-42 38v19q-21 11 -45.5 15.5t-58.5 4.5q-26 0 -47 -3v20l47 4q25 0 50 -3.5t54 -14.5v16q41 -17 74.5 -52.5t45.5 -99.5zM26 191
q5 -67 46 -110t106 -62v-20q-36 7 -66.5 22.5t-53.5 39.5t-36.5 56.5t-14.5 73.5h19z" />
    <glyph glyph-name="T" unicode="T" horiz-adv-x="549" 
d="M554 644h-255v-229h-25v-415h-29v415h-25v209h-219v71h298v-24h255v-27z" />
    <glyph glyph-name="U" unicode="U" horiz-adv-x="675" 
d="M552 292v406h74v-406h-29v-28t-0.5 -16t-1 -8.5t-0.5 -4.5q-7 -62 -32.5 -106.5t-63.5 -71.5v30q30 26 49 62t24 87q0 3 0.5 12t0.5 44h-21zM71 261q1 -45 15 -85.5t39.5 -71t63.5 -49t88 -18.5h18t18 2v-23q-20 -3 -37 -3q-43 0 -83.5 15.5t-72.5 46t-52 77t-21 109.5
v437h25z" />
    <glyph glyph-name="V" unicode="V" horiz-adv-x="563" 
d="M239 200l53 -133l122 333h87l-146 -400h-124l-80 200h31l-199 499h27l201 -499h28zM531 571l-65 -175h-29l64 175h30z" />
    <glyph glyph-name="W" unicode="W" horiz-adv-x="841" 
d="M12 700l242 -664l121 327h30l-46 137h27l48 -137h22l100 -296l18 47h22l233 585h27l-231 -585h26l-54 -114h-87l-119 321l-124 -321h-28l-256 700h29z" />
    <glyph glyph-name="X" unicode="X" horiz-adv-x="584" 
d="M276 389l218 311h32l-233 -333l257 -367h-87l-215 306l-210 -306h-32l225 329l-73 107h31l-73 110h34l73 -110h22z" />
    <glyph glyph-name="Y" unicode="Y" horiz-adv-x="486" 
d="M237 288l-71 106h26l-207 306h24l207 -306h25l31 -48l101 154h27l66 100h24l-66 -100h22l-141 -212v-288h-68v288z" />
    <glyph glyph-name="Z" unicode="Z" horiz-adv-x="680" 
d="M43 71l190 249h26l307 356h-470v24h515v-20l-314 -360h35l-187 -251h333v-21h151v-27h-151v-21h-435v71z" />
    <glyph glyph-name="bracketleft" unicode="[" horiz-adv-x="319" 
d="M129 76h152v-76h-230v247h26v454h214v-25h-185v-429h23v-171z" />
    <glyph glyph-name="backslash" unicode="\" horiz-adv-x="324" 
d="M50 700l243 -700h-28l-245 700h30z" />
    <glyph glyph-name="bracketright" unicode="]" horiz-adv-x="340" 
d="M195 449h23v227h-185v25h214v-252h26v-449h-230v76h152v373z" />
    <glyph glyph-name="underscore" unicode="_" horiz-adv-x="604" 
d="M99 20h401v-20h-401v20z" />
    <glyph glyph-name="grave" unicode="`" horiz-adv-x="833" 
d="M336 662l-89 76h59l46 -38h-29l45 -38h-32z" />
    <glyph glyph-name="a" unicode="a" 
d="M226 719h95l264 -719h-81l-231 622l-127 -344h194v-28h-229l-89 -250h-28l92 264h-27z" />
    <glyph glyph-name="b" unicode="b" horiz-adv-x="610" 
d="M65 200h-19v211h20v298h289q41 0 73 -15t53.5 -40t33 -56t11.5 -64q0 -12 -2.5 -21.5t-4.5 -14.5h13q-20 -79 -77 -113q48 -25 83.5 -65.5t45.5 -86.5h-15q2 -12 4.5 -23.5t2.5 -22.5q0 -35 -11 -68.5t-33 -60t-55 -42.5t-78 -16h-334v200zM92 29h298q42 0 71 13t48 35
t27.5 50.5t8.5 59.5q0 19 -7 46h-17q-14 43 -58 75.5t-98 44.5h-252v-153h-21v-171zM93 682v-271h268q25 6 43.5 12.5t31 16.5t21.5 24t15 34h18q7 14 7 36q0 29 -8 55.5t-26 47t-46.5 33t-69.5 12.5h-254z" />
    <glyph glyph-name="c" unicode="c" horiz-adv-x="656" 
d="M539 71q17 4 37 18.5t29 29.5h32q-6 -12 -18 -25.5t-26 -25t-28.5 -20t-25.5 -9.5v-19l-32 -12q-13 -4 -30 -8t-35 -7.5t-35.5 -5.5t-32.5 -2q-73 0 -136.5 29t-111.5 80t-76.5 119.5t-29.5 147.5h17v2q0 75 26.5 141t72 114.5t106.5 76.5t130 28q82 0 142 -27.5
t107 -94.5l-31 1q-42 51 -93.5 74t-121.5 23q-64 0 -120.5 -27t-98.5 -72.5t-66.5 -107t-24.5 -130.5v-2l20 1q1 -63 24.5 -119.5t63 -99t91 -67.5t110.5 -25h5q18 0 59.5 9.5t100.5 36.5v-25z" />
    <glyph glyph-name="d" unicode="d" horiz-adv-x="630" 
d="M64 160v549h234q65 0 120 -30.5t94.5 -79.5t62 -111t22.5 -125q0 -32 -6 -62h21q-18 -142 -93.5 -214t-211.5 -87h-264v160h21zM94 160h22v-93h183q55 6 96.5 22t71 44.5t47.5 70t27 97.5h24q3 17 5 33t2 33q0 67 -24.5 125.5t-63 101.5t-85.5 67.5t-93 24.5l-14 -1h-198
v-525z" />
    <glyph glyph-name="e" unicode="e" horiz-adv-x="625" 
d="M334 302h-216v-226h450v-76h-528v500h26v201h116v-25h-87v-176h23v-124h216v-24h189v-30h-189v-20zM334 700h221v-24h-221v24z" />
    <glyph glyph-name="f" unicode="f" horiz-adv-x="619" 
d="M585 675h-464v-211h25v-87h399v-71h-399v-306h-74v464h22v237h491v-26z" />
    <glyph glyph-name="g" unicode="g" horiz-adv-x="633" 
d="M586 160v-160h-262q-136 15 -211 86.5t-93 213.5h19q-2 14 -3.5 29.5t-1.5 32.5v39q6 83 32.5 142t65 96.5t85 55.5t93.5 18h36q18 0 43.5 -2.5t51.5 -10t49 -21t35 -36.5h-34q-9 10 -22.5 18t-28.5 13.5t-30.5 9t-28.5 5.5q-15 1 -29.5 1.5t-28.5 0.5h-14
q-46 -2 -89 -21.5t-77 -56t-55.5 -89t-24.5 -119.5v-37q0 -17 1.5 -35t4.5 -33h21q9 -56 26 -96.5t45.5 -68t69.5 -43t96 -21.5h186v89h22v172h-258v30h288v-202h21z" />
    <glyph glyph-name="h" unicode="h" horiz-adv-x="616" 
d="M362 301h-228v-301h-82v500h28v200h28v-200h26v-134h228v-19h171v353h28v-555h-28v175h-171v-19z" />
    <glyph glyph-name="i" unicode="i" horiz-adv-x="218" 
d="M129 700v-552h25v-148h-77v148l26 -1v552z" />
    <glyph glyph-name="j" unicode="j" horiz-adv-x="586" 
d="M65 284q0 -51 11.5 -87.5t31 -62t46.5 -42t58 -29.5v32q16 -7 32.5 -10t33.5 -3q32 0 61 8t51.5 26.5t38 49t21.5 76.5h28q3 24 3 52v406h28v-406q0 -28 -3 -52h25q-7 -69 -29 -115t-55.5 -74t-76.5 -39.5t-92 -11.5q-31 0 -66 8v24q-91 29 -131.5 91.5t-42.5 158.5h27z
" />
    <glyph glyph-name="k" unicode="k" horiz-adv-x="612" 
d="M122 700v-348l385 348h43l-284 -255l148 -206h-35l-135 185l-122 -112v-112h19v-200h-76v200h24v500h33zM471 166l15 -21h28l103 -145h-96l-101 145h31l-15 21h35z" />
    <glyph glyph-name="l" unicode="l" horiz-adv-x="597" 
d="M500 0h-450v300h26v400h29v-400h27v-224h368v-23h84v-30h-84v-23z" />
    <glyph glyph-name="m" unicode="m" horiz-adv-x="752" 
d="M667 100v571l-276 -677h-34l-81 206h-20l-152 353v-152h-21v-401h-29v401h-23v300h80l216 -501h-24l71 -177l276 682h44v-605h-27z" />
    <glyph glyph-name="n" unicode="n" horiz-adv-x="650" 
d="M218 567h-20l28 -42h-30l-29 42h-19l-18 26v-192h-25v-253h-28v253h-27v300h80zM309 399l243 -359v665h27v-705h-34l-267 399h31z" />
    <glyph glyph-name="o" unicode="o" horiz-adv-x="731" 
d="M610 145q33 44 51 97.5t18 113.5q0 70 -24 132t-66 107.5t-98.5 72t-120.5 26.5h-6v-23q-59 -1 -110.5 -26t-90 -68t-61 -100.5t-22.5 -122.5h-23q0 -44 10.5 -84.5t27.5 -75.5h-25q-17 35 -26.5 75.5t-9.5 84.5h-22q0 79 27.5 148.5t75 121.5t111.5 82t138 31v-19h6
q69 0 130 -28.5t106.5 -78t72 -115t26.5 -140.5q0 -60 -17 -113t-48 -98h29q-48 -77 -125 -122.5t-171 -45.5h-6v19q-33 0 -64 6v24q16 -3 31.5 -5t32.5 -2v24h6q63 0 117.5 27.5t94.5 74.5h25z" />
    <glyph glyph-name="p" unicode="p" horiz-adv-x="640" 
d="M68 0v180h-20v311h20v80h24v-80h22v-110h293q51 11 84 40.5t46 69.5h18q4 14 5.5 25.5t1.5 20.5q0 29 -10 57t-29 50t-47 35.5t-64 13.5h-179v23h186q42 0 74 -15.5t53.5 -41t32 -57.5t10.5 -65q0 -11 -2.5 -23t-4.5 -23h14q-12 -58 -55.5 -104.5t-117.5 -59.5h-309v-147
h-22v-180h-24z" />
    <glyph glyph-name="q" unicode="q" horiz-adv-x="727" 
d="M37 359q0 75 25.5 141t70 115t105.5 77.5t132 28.5q72 0 133.5 -28.5t107 -77.5t71 -115t25.5 -141q0 -103 -46.5 -183t-124.5 -129l114 -150l-57 -42l-106 139q-28 -9 -56.5 -12.5t-60.5 -3.5q-73 0 -137 29.5t-111.5 80.5t-76 119.5t-29.5 147.5h21l-2 4h2zM441 172
l80 -106q35 22 64 53t50 68.5t33 81t12 90.5q0 70 -24 131.5t-66 107t-98.5 71.5t-121.5 26q-62 0 -118 -26t-98.5 -71.5t-67.5 -107t-25 -131.5v-4h22q1 -64 24 -120t62 -98t90.5 -66.5t110.5 -24.5q18 0 35.5 2t34.5 7l-55 73z" />
    <glyph glyph-name="r" unicode="r" horiz-adv-x="636" 
d="M388 337l189 -337h-37l-182 337h-246v-108h-20v-229h-27v229h-20v498h205v-17h169q42 0 74 -15.5t53 -40t32 -56t11 -64.5q0 -32 -10 -64t-31 -59t-52.5 -47t-74.5 -27h-33zM112 366h305q35 7 61.5 23.5t44.5 39t27.5 49.5t9.5 55q0 23 -4 36q-10 48 -43.5 80t-93.5 32
h-169v-21h-138v-294z" />
    <glyph glyph-name="s" unicode="s" horiz-adv-x="587" 
d="M351 0q-9 -1 -18.5 -1.5t-18.5 -0.5v21h18.5t18.5 2v17q27 5 53 14t46.5 24.5t33.5 38t13 54.5q0 51 -21 83t-54 50.5t-73 27.5t-78 15q-5 1 -8.5 1.5t-8.5 0.5v16q-33 4 -69 12t-66.5 23t-51.5 38.5t-25 59.5h22q6 -33 32 -55t57.5 -35t60 -17.5t40.5 -4.5v20l24 -3
q25 -3 54 -8.5t59 -15t57.5 -25t49 -40t35 -60t13.5 -83.5q0 -47 -16.5 -80.5t-44 -56t-62.5 -35t-72 -17.5v20zM451 560q-8 42 -24 66t-42 38v19q-21 11 -45.5 15.5t-58.5 4.5q-26 0 -47 -3v20l47 4q25 0 50 -3.5t54 -14.5v16q41 -17 74.5 -52.5t45.5 -99.5zM26 191
q5 -67 46 -110t106 -62v-20q-36 7 -66.5 22.5t-53.5 39.5t-36.5 56.5t-14.5 73.5h19z" />
    <glyph glyph-name="t" unicode="t" horiz-adv-x="549" 
d="M554 644h-255v-229h-25v-415h-29v415h-25v209h-219v71h298v-24h255v-27z" />
    <glyph glyph-name="u" unicode="u" horiz-adv-x="675" 
d="M552 292v406h74v-406h-29v-28t-0.5 -16t-1 -8.5t-0.5 -4.5q-7 -62 -32.5 -106.5t-63.5 -71.5v30q30 26 49 62t24 87q0 3 0.5 12t0.5 44h-21zM71 261q1 -45 15 -85.5t39.5 -71t63.5 -49t88 -18.5h18t18 2v-23q-20 -3 -37 -3q-43 0 -83.5 15.5t-72.5 46t-52 77t-21 109.5
v437h25z" />
    <glyph glyph-name="v" unicode="v" horiz-adv-x="563" 
d="M239 200l53 -133l122 333h87l-146 -400h-124l-80 200h31l-199 499h27l201 -499h28zM531 571l-65 -175h-29l64 175h30z" />
    <glyph glyph-name="w" unicode="w" horiz-adv-x="841" 
d="M12 700l242 -664l121 327h30l-46 137h27l48 -137h22l100 -296l18 47h22l233 585h27l-231 -585h26l-54 -114h-87l-119 321l-124 -321h-28l-256 700h29z" />
    <glyph glyph-name="x" unicode="x" horiz-adv-x="584" 
d="M276 389l218 311h32l-233 -333l257 -367h-87l-215 306l-210 -306h-32l225 329l-73 107h31l-73 110h34l73 -110h22z" />
    <glyph glyph-name="y" unicode="y" horiz-adv-x="486" 
d="M237 288l-71 106h26l-207 306h24l207 -306h25l31 -48l101 154h27l66 100h24l-66 -100h22l-141 -212v-288h-68v288z" />
    <glyph glyph-name="z" unicode="z" horiz-adv-x="680" 
d="M43 71l190 249h26l307 356h-470v24h515v-20l-314 -360h35l-187 -251h333v-21h151v-27h-151v-21h-435v71z" />
    <glyph glyph-name="braceleft" unicode="{" horiz-adv-x="340" 
d="M111 76h152v-76h-230v449h26v252h214v-25h-185v-227h23v-373z" />
    <glyph glyph-name="bar" unicode="|" horiz-adv-x="218" 
d="M129 700v-700l-26 -1v700z" />
    <glyph glyph-name="braceright" unicode="}" horiz-adv-x="319" 
d="M213 247h23v429h-185v25h214v-454h26v-247h-230v76h152v171z" />
    <glyph glyph-name="asciitilde" unicode="~" horiz-adv-x="693" 
d="M114 198q22 66 63 97.5t92 33.5v-25h5q44 0 72 -18t53 -39q20 -18 44 -33.5t59 -15.5q34 0 60 25v-30q-15 -10 -30.5 -14t-29.5 -4q-41 0 -69 17.5t-51 38.5q-22 18 -46.5 34.5t-61.5 16.5h-5v-35q-24 -2 -44 -20t-33 -55z" />
    <glyph glyph-name="dieresis" unicode="&#xa8;" horiz-adv-x="174" 
d="M10 753v51h35v-51h-35zM125 753v51h35v-51h-35z" />
    <glyph glyph-name="logicalnot" unicode="&#xac;" horiz-adv-x="546" 
d="M99 301h332v-132h-77v112h-255v20z" />
    <glyph glyph-name="uni00AD" unicode="&#xad;" horiz-adv-x="410" 
d="M99 301h235v-20h-235v20z" />
    <glyph glyph-name="acute" unicode="&#xb4;" horiz-adv-x="292" 
d="M102 664l45 38h-29l46 38h59l-89 -76h-32z" />
    <glyph glyph-name="periodcentered" unicode="&#xb7;" horiz-adv-x="228" 
d="M97 306v51h35v-51h-35z" />
    <glyph glyph-name="Agrave" unicode="&#xc0;" horiz-adv-x="578" 
d="M90 264h27l-92 -264h28l89 250h229v28h-194l127 344l231 -622h81l-264 719h-95zM313 738l-89 76h59l46 -38h-29l45 -38h-32z" />
    <glyph glyph-name="Aacute" unicode="&#xc1;" horiz-adv-x="578" 
d="M257 719h95l264 -719h-81l-231 622l-127 -344h194v-28h-229l-89 -250h-28l92 264h-27zM266 738l45 38h-29l46 38h59l-89 -76h-32z" />
    <glyph glyph-name="Atilde" unicode="&#xc3;" 
d="M226 719h95l264 -719h-81l-231 622l-127 -344h194v-28h-229l-89 -250h-28l92 264h-27zM171 859h5q44 0 72 -18t53 -39q20 -18 44 -33.5t59 -15.5q34 0 60 25v-30q-15 -10 -30.5 -14t-29.5 -4q-41 0 -69 17.5t-51 38.5q-22 18 -46.5 34.5t-61.5 16.5h-5v22z" />
    <glyph glyph-name="Adieresis" unicode="&#xc4;" 
d="M226 719h95l264 -719h-81l-231 622l-127 -344h194v-28h-229l-89 -250h-28l92 264h-27zM197 755v51h35v-51h-35zM312 755v51h35v-51h-35z" />
    <glyph glyph-name="Egrave" unicode="&#xc8;" horiz-adv-x="623" 
d="M365 322h189v30h-189v24h-216v124h-23v176h87v25h-116v-201h-26v-500h528v76h-450v226h216v20zM365 676h221v24h-221v-24zM313 738l-89 76h59l46 -38h-29l45 -38h-32z" />
    <glyph glyph-name="Eacute" unicode="&#xc9;" horiz-adv-x="623" 
d="M365 302h-216v-226h450v-76h-528v500h26v201h116v-25h-87v-176h23v-124h216v-24h189v-30h-189v-20zM365 700h221v-24h-221v24zM266 738l45 38h-29l46 38h59l-89 -76h-32z" />
    <glyph glyph-name="Edieresis" unicode="&#xcb;" horiz-adv-x="625" 
d="M334 302h-216v-226h450v-76h-528v500h26v201h116v-25h-87v-176h23v-124h216v-24h189v-30h-189v-20zM334 700h221v-24h-221v24zM237 762v51h35v-51h-35zM352 762v51h35v-51h-35z" />
    <glyph glyph-name="Igrave" unicode="&#xcc;" horiz-adv-x="187" 
d="M56 699v-552l-26 1v-148h77v148h-25v552zM47 738l-89 76h59l46 -38h-29l45 -38h-32z" />
    <glyph glyph-name="Iacute" unicode="&#xcd;" horiz-adv-x="187" 
d="M110 700v-552h25v-148h-77v148l26 -1v552zM86 738l45 38h-29l46 38h59l-89 -76h-32z" />
    <glyph glyph-name="Idieresis" unicode="&#xcf;" horiz-adv-x="218" 
d="M129 700v-552h25v-148h-77v148l26 -1v552zM41 762v51h35v-51h-35zM156 762v51h35v-51h-35z" />
    <glyph glyph-name="Ntilde" unicode="&#xd1;" horiz-adv-x="648" 
d="M180 741q14 41 38.5 60t56.5 20v-15h3q26 0 43.5 -11t32.5 -24q13 -11 27.5 -20.5t35.5 -9.5q20 0 37 15v-18q-17 -11 -37 -11q-25 0 -42 10.5t-31 23.5q-14 11 -28.5 21t-37.5 10h-3v-21q-15 -2 -27 -12.5t-20 -33.5zM105 703l80 -113h-34l-54 75v-164h31v-500h-80v500
h27v202h30zM598 501h-25v-501h-31l-267 401h33l239 -358v458h-27v199h78v-199z" />
    <glyph glyph-name="Ograve" unicode="&#xd2;" horiz-adv-x="772" 
d="M597 145q-40 -47 -94.5 -74.5t-117.5 -27.5h-6v-24q-17 0 -32.5 2t-31.5 5v-24q31 -6 64 -6v-19h6q94 0 171 45.5t125 122.5h-29q31 45 48 98t17 113q0 75 -26.5 140.5t-72 115t-106.5 78t-130 28.5h-6v19q-74 -1 -138 -31t-111.5 -82t-75 -121.5t-27.5 -148.5h22
q0 -44 9.5 -84.5t26.5 -75.5h25q-17 35 -27.5 75.5t-10.5 84.5h23q0 65 22.5 122.5t61 100.5t90 68t110.5 26v23h6q64 0 120.5 -26.5t98.5 -72t66 -107.5t24 -132q0 -60 -18 -113.5t-51 -97.5h-25zM385 748l-89 76h59l46 -38h-29l45 -38h-32z" />
    <glyph glyph-name="Oacute" unicode="&#xd3;" horiz-adv-x="772" 
d="M622 145q33 44 51 97.5t18 113.5q0 70 -24 132t-66 107.5t-98.5 72t-120.5 26.5h-6v-23q-59 -1 -110.5 -26t-90 -68t-61 -100.5t-22.5 -122.5h-23q0 -44 10.5 -84.5t27.5 -75.5h-25q-17 35 -26.5 75.5t-9.5 84.5h-22q0 79 27.5 148.5t75 121.5t111.5 82t138 31v-19h6
q69 0 130 -28.5t106.5 -78t72 -115t26.5 -140.5q0 -60 -17 -113t-48 -98h29q-48 -77 -125 -122.5t-171 -45.5h-6v19q-33 0 -64 6v24q16 -3 31.5 -5t32.5 -2v24h6q63 0 117.5 27.5t94.5 74.5h25zM378 747l45 38h-29l46 38h59l-89 -76h-32z" />
    <glyph glyph-name="Otilde" unicode="&#xd5;" horiz-adv-x="731" 
d="M610 145q33 44 51 97.5t18 113.5q0 70 -24 132t-66 107.5t-98.5 72t-120.5 26.5h-6v-23q-59 -1 -110.5 -26t-90 -68t-61 -100.5t-22.5 -122.5h-23q0 -44 10.5 -84.5t27.5 -75.5h-25q-17 35 -26.5 75.5t-9.5 84.5h-22q0 79 27.5 148.5t75 121.5t111.5 82t138 31v-19h6
q69 0 130 -28.5t106.5 -78t72 -115t26.5 -140.5q0 -60 -17 -113t-48 -98h29q-48 -77 -125 -122.5t-171 -45.5h-6v19q-33 0 -64 6v24q16 -3 31.5 -5t32.5 -2v24h6q63 0 117.5 27.5t94.5 74.5h25zM272 859h5q44 0 72 -18t53 -39q20 -18 44 -33.5t59 -15.5q34 0 60 25v-30
q-15 -10 -30.5 -14t-29.5 -4q-41 0 -69 17.5t-51 38.5q-22 18 -46.5 34.5t-61.5 16.5h-5v22z" />
    <glyph glyph-name="Odieresis" unicode="&#xd6;" horiz-adv-x="731" 
d="M610 145q33 44 51 97.5t18 113.5q0 70 -24 132t-66 107.5t-98.5 72t-120.5 26.5h-6v-23q-59 -1 -110.5 -26t-90 -68t-61 -100.5t-22.5 -122.5h-23q0 -44 10.5 -84.5t27.5 -75.5h-25q-17 35 -26.5 75.5t-9.5 84.5h-22q0 79 27.5 148.5t75 121.5t111.5 82t138 31v-19h6
q69 0 130 -28.5t106.5 -78t72 -115t26.5 -140.5q0 -60 -17 -113t-48 -98h29q-48 -77 -125 -122.5t-171 -45.5h-6v19q-33 0 -64 6v24q16 -3 31.5 -5t32.5 -2v24h6q63 0 117.5 27.5t94.5 74.5h25zM290 762v51h35v-51h-35zM405 762v51h35v-51h-35z" />
    <glyph glyph-name="multiply" unicode="&#xd7;" horiz-adv-x="410" 
d="M348 306l-108 -153l117 -153h-55l-90 118l-89 -118h-49l113 153l-110 153h51l84 -115l84 115h52z" />
    <glyph glyph-name="Ugrave" unicode="&#xd9;" horiz-adv-x="563" 
d="M560 292q0 -35 -0.5 -44t-0.5 -12q-5 -51 -24 -87t-49 -62v-30q38 27 63.5 71.5t32.5 106.5q0 2 0.5 4.5t1 8.5t0.5 16v28h29v406h-74v-406h21zM59 698h-25v-437q1 -63 21 -109.5t52 -77t72.5 -46t83.5 -15.5q17 0 37 3v23q-9 -2 -18 -2h-18q-50 0 -88 18.5t-63.5 49
t-39.5 71t-15 85.5zM313 738l-89 76h59l46 -38h-29l45 -38h-32z" />
    <glyph glyph-name="Uacute" unicode="&#xda;" horiz-adv-x="563" 
d="M539 292v406h74v-406h-29v-28t-0.5 -16t-1 -8.5t-0.5 -4.5q-7 -62 -32.5 -106.5t-63.5 -71.5v30q30 26 49 62t24 87q0 3 0.5 12t0.5 44h-21zM58 261q1 -45 15 -85.5t39.5 -71t63.5 -49t88 -18.5h18t18 2v-23q-20 -3 -37 -3q-43 0 -83.5 15.5t-72.5 46t-52 77t-21 109.5
v437h25zM258 738l45 38h-29l46 38h59l-89 -76h-32z" />
    <glyph glyph-name="Udieresis" unicode="&#xdc;" horiz-adv-x="675" 
d="M552 292v406h74v-406h-29v-28t-0.5 -16t-1 -8.5t-0.5 -4.5q-7 -62 -32.5 -106.5t-63.5 -71.5v30q30 26 49 62t24 87q0 3 0.5 12t0.5 44h-21zM71 261q1 -45 15 -85.5t39.5 -71t63.5 -49t88 -18.5h18t18 2v-23q-20 -3 -37 -3q-43 0 -83.5 15.5t-72.5 46t-52 77t-21 109.5
v437h25zM262 762v51h35v-51h-35zM377 762v51h35v-51h-35z" />
    <glyph glyph-name="Yacute" unicode="&#xdd;" horiz-adv-x="486" 
d="M237 288l-71 106h26l-207 306h24l207 -306h25l31 -48l101 154h27l66 100h24l-66 -100h22l-141 -212v-288h-68v288zM249 782l46 38h76l-43 -38h-79zM226 744l90 76h31l-89 -76h-32z" />
    <glyph glyph-name="agrave" unicode="&#xe0;" horiz-adv-x="578" 
d="M90 264h27l-92 -264h28l89 250h229v28h-194l127 344l231 -622h81l-264 719h-95zM313 738l-89 76h59l46 -38h-29l45 -38h-32z" />
    <glyph glyph-name="aacute" unicode="&#xe1;" horiz-adv-x="578" 
d="M257 719h95l264 -719h-81l-231 622l-127 -344h194v-28h-229l-89 -250h-28l92 264h-27zM266 738l45 38h-29l46 38h59l-89 -76h-32z" />
    <glyph glyph-name="atilde" unicode="&#xe3;" 
d="M226 719h95l264 -719h-81l-231 622l-127 -344h194v-28h-229l-89 -250h-28l92 264h-27zM171 859h5q44 0 72 -18t53 -39q20 -18 44 -33.5t59 -15.5q34 0 60 25v-30q-15 -10 -30.5 -14t-29.5 -4q-41 0 -69 17.5t-51 38.5q-22 18 -46.5 34.5t-61.5 16.5h-5v22z" />
    <glyph glyph-name="adieresis" unicode="&#xe4;" 
d="M226 719h95l264 -719h-81l-231 622l-127 -344h194v-28h-229l-89 -250h-28l92 264h-27zM197 755v51h35v-51h-35zM312 755v51h35v-51h-35z" />
    <glyph glyph-name="egrave" unicode="&#xe8;" horiz-adv-x="623" 
d="M365 322h189v30h-189v24h-216v124h-23v176h87v25h-116v-201h-26v-500h528v76h-450v226h216v20zM365 676h221v24h-221v-24zM313 738l-89 76h59l46 -38h-29l45 -38h-32z" />
    <glyph glyph-name="eacute" unicode="&#xe9;" horiz-adv-x="623" 
d="M365 302h-216v-226h450v-76h-528v500h26v201h116v-25h-87v-176h23v-124h216v-24h189v-30h-189v-20zM365 700h221v-24h-221v24zM266 738l45 38h-29l46 38h59l-89 -76h-32z" />
    <glyph glyph-name="edieresis" unicode="&#xeb;" horiz-adv-x="625" 
d="M334 302h-216v-226h450v-76h-528v500h26v201h116v-25h-87v-176h23v-124h216v-24h189v-30h-189v-20zM334 700h221v-24h-221v24zM237 753v51h35v-51h-35zM352 753v51h35v-51h-35z" />
    <glyph glyph-name="igrave" unicode="&#xec;" horiz-adv-x="187" 
d="M56 699v-552l-26 1v-148h77v148h-25v552zM47 738l-89 76h59l46 -38h-29l45 -38h-32z" />
    <glyph glyph-name="iacute" unicode="&#xed;" horiz-adv-x="187" 
d="M110 700v-552h25v-148h-77v148l26 -1v552zM86 738l45 38h-29l46 38h59l-89 -76h-32z" />
    <glyph glyph-name="idieresis" unicode="&#xef;" horiz-adv-x="218" 
d="M129 700v-552h25v-148h-77v148l26 -1v552zM41 762v51h35v-51h-35zM156 762v51h35v-51h-35z" />
    <glyph glyph-name="ntilde" unicode="&#xf1;" horiz-adv-x="648" 
d="M180 741q14 41 38.5 60t56.5 20v-15h3q26 0 43.5 -11t32.5 -24q13 -11 27.5 -20.5t35.5 -9.5q20 0 37 15v-18q-17 -11 -37 -11q-25 0 -42 10.5t-31 23.5q-14 11 -28.5 21t-37.5 10h-3v-21q-15 -2 -27 -12.5t-20 -33.5zM105 703l80 -113h-34l-54 75v-164h31v-500h-80v500
h27v202h30zM598 501h-25v-501h-31l-267 401h33l239 -358v458h-27v199h78v-199z" />
    <glyph glyph-name="ograve" unicode="&#xf2;" horiz-adv-x="772" 
d="M597 145q-40 -47 -94.5 -74.5t-117.5 -27.5h-6v-24q-17 0 -32.5 2t-31.5 5v-24q31 -6 64 -6v-19h6q94 0 171 45.5t125 122.5h-29q31 45 48 98t17 113q0 75 -26.5 140.5t-72 115t-106.5 78t-130 28.5h-6v19q-74 -1 -138 -31t-111.5 -82t-75 -121.5t-27.5 -148.5h22
q0 -44 9.5 -84.5t26.5 -75.5h25q-17 35 -27.5 75.5t-10.5 84.5h23q0 65 22.5 122.5t61 100.5t90 68t110.5 26v23h6q64 0 120.5 -26.5t98.5 -72t66 -107.5t24 -132q0 -60 -18 -113.5t-51 -97.5h-25zM385 748l-89 76h59l46 -38h-29l45 -38h-32z" />
    <glyph glyph-name="oacute" unicode="&#xf3;" horiz-adv-x="772" 
d="M622 145q33 44 51 97.5t18 113.5q0 70 -24 132t-66 107.5t-98.5 72t-120.5 26.5h-6v-23q-59 -1 -110.5 -26t-90 -68t-61 -100.5t-22.5 -122.5h-23q0 -44 10.5 -84.5t27.5 -75.5h-25q-17 35 -26.5 75.5t-9.5 84.5h-22q0 79 27.5 148.5t75 121.5t111.5 82t138 31v-19h6
q69 0 130 -28.5t106.5 -78t72 -115t26.5 -140.5q0 -60 -17 -113t-48 -98h29q-48 -77 -125 -122.5t-171 -45.5h-6v19q-33 0 -64 6v24q16 -3 31.5 -5t32.5 -2v24h6q63 0 117.5 27.5t94.5 74.5h25zM378 747l45 38h-29l46 38h59l-89 -76h-32z" />
    <glyph glyph-name="otilde" unicode="&#xf5;" horiz-adv-x="731" 
d="M610 145q33 44 51 97.5t18 113.5q0 70 -24 132t-66 107.5t-98.5 72t-120.5 26.5h-6v-23q-59 -1 -110.5 -26t-90 -68t-61 -100.5t-22.5 -122.5h-23q0 -44 10.5 -84.5t27.5 -75.5h-25q-17 35 -26.5 75.5t-9.5 84.5h-22q0 79 27.5 148.5t75 121.5t111.5 82t138 31v-19h6
q69 0 130 -28.5t106.5 -78t72 -115t26.5 -140.5q0 -60 -17 -113t-48 -98h29q-48 -77 -125 -122.5t-171 -45.5h-6v19q-33 0 -64 6v24q16 -3 31.5 -5t32.5 -2v24h6q63 0 117.5 27.5t94.5 74.5h25zM272 859h5q44 0 72 -18t53 -39q20 -18 44 -33.5t59 -15.5q34 0 60 25v-30
q-15 -10 -30.5 -14t-29.5 -4q-41 0 -69 17.5t-51 38.5q-22 18 -46.5 34.5t-61.5 16.5h-5v22z" />
    <glyph glyph-name="odieresis" unicode="&#xf6;" horiz-adv-x="731" 
d="M610 145q33 44 51 97.5t18 113.5q0 70 -24 132t-66 107.5t-98.5 72t-120.5 26.5h-6v-23q-59 -1 -110.5 -26t-90 -68t-61 -100.5t-22.5 -122.5h-23q0 -44 10.5 -84.5t27.5 -75.5h-25q-17 35 -26.5 75.5t-9.5 84.5h-22q0 79 27.5 148.5t75 121.5t111.5 82t138 31v-19h6
q69 0 130 -28.5t106.5 -78t72 -115t26.5 -140.5q0 -60 -17 -113t-48 -98h29q-48 -77 -125 -122.5t-171 -45.5h-6v19q-33 0 -64 6v24q16 -3 31.5 -5t32.5 -2v24h6q63 0 117.5 27.5t94.5 74.5h25zM290 762v51h35v-51h-35zM405 762v51h35v-51h-35z" />
    <glyph glyph-name="ugrave" unicode="&#xf9;" horiz-adv-x="563" 
d="M560 292q0 -35 -0.5 -44t-0.5 -12q-5 -51 -24 -87t-49 -62v-30q38 27 63.5 71.5t32.5 106.5q0 2 0.5 4.5t1 8.5t0.5 16v28h29v406h-74v-406h21zM59 698h-25v-437q1 -63 21 -109.5t52 -77t72.5 -46t83.5 -15.5q17 0 37 3v23q-9 -2 -18 -2h-18q-50 0 -88 18.5t-63.5 49
t-39.5 71t-15 85.5zM313 738l-89 76h59l46 -38h-29l45 -38h-32z" />
    <glyph glyph-name="uacute" unicode="&#xfa;" horiz-adv-x="563" 
d="M539 292v406h74v-406h-29v-28t-0.5 -16t-1 -8.5t-0.5 -4.5q-7 -62 -32.5 -106.5t-63.5 -71.5v30q30 26 49 62t24 87q0 3 0.5 12t0.5 44h-21zM58 261q1 -45 15 -85.5t39.5 -71t63.5 -49t88 -18.5h18t18 2v-23q-20 -3 -37 -3q-43 0 -83.5 15.5t-72.5 46t-52 77t-21 109.5
v437h25zM258 738l45 38h-29l46 38h59l-89 -76h-32z" />
    <glyph glyph-name="udieresis" unicode="&#xfc;" horiz-adv-x="675" 
d="M552 292v406h74v-406h-29v-28t-0.5 -16t-1 -8.5t-0.5 -4.5q-7 -62 -32.5 -106.5t-63.5 -71.5v30q30 26 49 62t24 87q0 3 0.5 12t0.5 44h-21zM71 261q1 -45 15 -85.5t39.5 -71t63.5 -49t88 -18.5h18t18 2v-23q-20 -3 -37 -3q-43 0 -83.5 15.5t-72.5 46t-52 77t-21 109.5
v437h25zM262 762v51h35v-51h-35zM377 762v51h35v-51h-35z" />
    <glyph glyph-name="yacute" unicode="&#xfd;" horiz-adv-x="486" 
d="M237 288l-71 106h26l-207 306h24l207 -306h25l31 -48l101 154h27l66 100h24l-66 -100h22l-141 -212v-288h-68v288zM239 738l45 38h-29l46 38h59l-89 -76h-32z" />
    <glyph glyph-name="ydieresis" unicode="&#xff;" horiz-adv-x="486" 
d="M237 288l-71 106h26l-207 306h24l207 -306h25l31 -48l101 154h27l66 100h24l-66 -100h22l-141 -212v-288h-68v288zM168 753v51h35v-51h-35zM283 753v51h35v-51h-35z" />
    <glyph glyph-name="glyph11" horiz-adv-x="654" 
d="M182 809q14 41 38.5 60t56.5 20v-15h3q26 0 43.5 -11t32.5 -24q13 -11 27.5 -20.5t35.5 -9.5q20 0 37 15v-18q-17 -11 -37 -11q-25 0 -42 10.5t-31 23.5q-14 11 -28.5 21t-37.5 10h-3v-21q-15 -2 -27 -12.5t-20 -33.5z" />
    <glyph glyph-name="glyph112" horiz-adv-x="693" 
d="M103 859h5q44 0 72 -18t53 -39q20 -18 44 -33.5t59 -15.5q34 0 60 25v-30q-15 -10 -30.5 -14t-29.5 -4q-41 0 -69 17.5t-51 38.5q-22 18 -46.5 34.5t-61.5 16.5h-5v22z" />
    <glyph glyph-name="glyph127" horiz-adv-x="546" 
d="M72 523q0 38 15 71.5t41 58.5t60.5 39.5t74.5 14.5t74.5 -14.5t60.5 -39.5t41 -58.5t15 -71.5q0 -37 -14 -68.5t-37 -56.5q49 -31 77.5 -81t28.5 -111q0 -48 -19 -90t-51.5 -73.5t-76 -49.5t-93.5 -18t-93.5 18t-76 49.5t-51.5 73.5t-19 90q0 58 26 107t72 80
q-25 26 -40 59t-15 71zM479 206q0 27 -9 53.5t-26 51.5q-26 41 -56.5 52.5t-60.5 11.5q-14 0 -28 -1.5t-29 -3.5t-29.5 -3.5t-29.5 -1.5q-14 0 -27 2t-27 7q-45 -34 -71.5 -78.5t-26.5 -89.5q0 -42 16.5 -78.5t45 -63.5t66.5 -43t82 -16q43 0 81.5 16t67 43t45 63.5
t16.5 78.5zM102 523q0 -29 13.5 -58t38.5 -56q14 -9 28.5 -11.5t28.5 -2.5q12 0 26 1.5t29 3.5t29.5 3.5t31.5 1.5q18 0 36 -3q28 29 44.5 60t16.5 61q0 32 -12.5 60t-34.5 49t-51.5 33t-62.5 12t-62.5 -12t-51.5 -33t-34.5 -49t-12.5 -60z" />
    <glyph glyph-name="glyph129" horiz-adv-x="0" 
d="M31 168q12 -97 67 -144.5t148 -47.5q87 0 139 30.5t79 81.5t35 118t8 140q0 47 -2 87.5t-3 54.5q-1 51 -19.5 95t-51 76.5t-75 51t-91.5 18.5t-91.5 -19t-74.5 -51t-50.5 -76t-18.5 -93q0 -50 18.5 -93t50.5 -75.5t74.5 -51t91.5 -18.5q70 0 126.5 37t85.5 97v-40
q0 -67 -7 -128.5t-31 -108.5t-69.5 -75t-123.5 -28q-80 0 -127 41t-58 125zM60 490q0 43 16 81t44 66.5t65.5 45t79.5 16.5t79.5 -16.5t65.5 -45t44.5 -66.5t16.5 -81t-16.5 -81t-44.5 -66t-65.5 -44.5t-79.5 -16.5t-79.5 16.5t-65.5 44.5t-44 66t-16 81zM31 168
q12 -97 67 -144.5t148 -47.5q87 0 139 30.5t79 81.5t35 118t8 140q0 47 -2 87.5t-3 54.5q-1 51 -19.5 95t-51 76.5t-75 51t-91.5 18.5t-91.5 -19t-74.5 -51t-50.5 -76t-18.5 -93q0 -50 18.5 -93t50.5 -75.5t74.5 -51t91.5 -18.5q70 0 126.5 37t85.5 97v-40q0 -67 -7 -128.5
t-31 -108.5t-69.5 -75t-123.5 -28q-80 0 -127 41t-58 125zM60 490q0 43 16 81t44 66.5t65.5 45t79.5 16.5t79.5 -16.5t65.5 -45t44.5 -66.5t16.5 -81t-16.5 -81t-44.5 -66t-65.5 -44.5t-79.5 -16.5t-79.5 16.5t-65.5 44.5t-44 66t-16 81z" />
    </font>
</defs>
</svg>
